<?xml version="1.0" encoding="UTF-8"?>
<svg width="24px" height="22px" viewBox="0 0 24 22" version="1.1" xmlns="http://www.w3.org/2000/svg" xmlns:xlink="http://www.w3.org/1999/xlink">
    <!-- Generator: Sketch 49.1 (51147) - http://www.bohemiancoding.com/sketch -->
    <title>设置默认</title>
    <desc>Created with Sketch.</desc>
    <defs></defs>
    <g id="Page-1" stroke="none" stroke-width="1" fill="none" fill-rule="evenodd">
        <g id="首页深蓝-copy" transform="translate(-28.000000, -531.000000)" fill="#FFFFFF" fill-rule="nonzero">
            <path d="M41.4668737,538.728231 C39.6258798,537.686826 37.2717968,538.304939 36.2092194,540.108827 C35.1461119,541.912738 35.7770655,544.219508 37.6180594,545.261004 C39.4590993,546.302889 41.8130441,545.684319 42.8761746,543.880431 C43.9388442,542.076497 43.3079367,539.770185 41.4668737,538.728231 Z M42.0348495,543.404582 C41.2399738,544.752949 39.4797538,545.21488 38.1033018,544.436167 C36.7269421,543.65766 36.2551849,541.933362 37.0501066,540.585065 C37.8445212,539.236286 39.6047873,538.774241 40.9816773,539.552954 C42.3580832,540.331552 42.8297251,542.055873 42.0348495,543.404582 Z M50.8624131,539.79335 C50.8652946,539.793922 50.8681761,539.794609 50.8711037,539.795181 L50.6796115,538.997286 L50.6224428,538.799947 C49.5716911,538.489391 48.7768386,537.861756 48.2884841,537.03321 C47.8001065,536.204733 47.6287157,535.004057 47.8945732,534.159648 L47.4851484,533.794018 C47.3705113,533.687439 47.2537304,533.583081 47.1347365,533.481127 L47.1118229,533.460663 C47.1117307,533.460915 47.1116846,533.461144 47.1115924,533.461395 C45.9989233,532.513132 44.6993725,531.7699 43.2737969,531.29277 C43.273843,531.292724 43.273843,531.292701 43.2738891,531.292655 L43.2700164,531.291488 C43.0096913,531.204458 42.7451707,531.12631 42.4768466,531.057341 L42.4727434,531.056128 L42.4583359,531.052557 C42.4479395,531.049901 42.4375892,531.047154 42.4271697,531.044499 L42.4271697,531.044865 L42.2697253,531.005952 C41.4698013,531.742111 40.517389,532.102614 39.5408183,532.102614 C38.5642015,532.102614 37.4170238,531.647687 36.8034052,531 L36.6381231,531.048757 C36.3495825,531.121984 36.0654678,531.205946 35.786171,531.300026 L35.7820677,531.301239 C35.7821139,531.301285 35.7821369,531.301331 35.782183,531.301377 C34.3574142,531.78194 33.0591313,532.528378 31.9484216,533.479731 C31.9483524,533.479502 31.9482833,533.479296 31.9482141,533.479113 L31.9325158,533.493259 C31.7905852,533.615288 31.6517436,533.740683 31.5161293,533.869282 L31.3357251,534.032171 L31.1898988,534.179334 C31.4407035,535.226049 31.2833051,536.214187 30.7949506,537.042664 C30.3066192,537.871164 29.3308784,538.616914 28.4514023,538.813635 L28.3919053,539.065225 C28.3252392,539.309353 28.2666874,539.556685 28.2165495,539.806993 L28.210971,539.830639 C28.2112476,539.830593 28.2115242,539.830524 28.2118009,539.830456 C28.0730976,540.530654 28,541.253766 28,541.993702 C28,543.037693 28.1445815,544.048607 28.4150264,545.008316 L28.4162021,545.007652 L28.4655331,545.177843 C29.5163079,545.48833 30.3111604,546.115874 30.7995149,546.944465 C31.2878464,547.773056 31.4592373,548.973619 31.1934258,549.818119 L31.3927556,549.999229 C32.6227588,551.200432 34.1279096,552.131298 35.8076093,552.693444 C35.807471,552.693604 35.8073557,552.693764 35.8072174,552.693901 L35.8220398,552.698296 C36.0527432,552.775163 36.286697,552.845048 36.5236935,552.907745 L36.6064729,552.932466 L36.8095601,552.982643 C37.6095302,552.246506 38.5618042,551.885957 39.5385362,551.885957 C40.5151069,551.885957 41.6622386,552.340815 42.2759263,552.988571 L42.4743801,552.929697 C44.4971382,552.410494 46.3031623,551.367144 47.7322418,549.956721 L47.7410246,549.948732 L47.7602038,549.929344 C47.7623246,549.927215 47.7645375,549.925132 47.7666353,549.923049 L47.766497,549.92298 L47.8867587,549.801546 C47.6359771,548.754808 47.7933755,547.766784 48.281753,546.938216 C48.7701305,546.109625 49.7457792,545.363943 50.6253013,545.167199 L50.6638902,545.006667 L50.6668178,545.008316 C50.9372166,544.048562 51.0818442,543.03767 51.0818442,541.993656 C51.0817289,541.240718 51.0059112,540.505131 50.8624131,539.79335 Z M49.8246396,544.462582 C48.8931124,544.842565 48.0239405,545.494167 47.4499712,546.46793 C46.8701699,547.451742 46.7307289,548.474262 46.8754257,549.465467 C45.6559802,550.612878 44.1566616,551.47727 42.4871969,551.949913 C41.6878953,551.353409 40.6819796,550.945294 39.538444,550.945294 C38.3813999,550.945294 37.4089786,551.336951 36.6058043,551.953164 C34.9379302,551.482947 33.4395337,550.621782 32.2196963,549.47808 C32.3471733,548.501959 32.203583,547.445561 31.6309969,546.474065 C31.0508267,545.489635 30.2136047,544.859436 29.2629905,544.48648 C29.0614938,543.687898 28.9540259,542.853127 28.9540259,541.993702 C28.9540259,541.139954 29.0599955,540.310516 29.2588873,539.516787 C30.1878558,539.136644 31.0534316,538.485408 31.6265709,537.512927 C32.2052428,536.531061 32.3460899,535.512936 32.2031911,534.524775 C33.4222678,533.377021 34.9211484,532.511965 36.5903135,532.038749 C37.3904218,532.635025 38.3976055,533.043231 39.5408183,533.043231 C40.6976548,533.043231 41.6709291,532.650521 42.4745414,532.033919 C44.1443288,532.504365 45.6442698,533.366812 46.8649832,534.512116 C46.7396039,535.48414 46.885338,536.533739 47.4569098,537.503519 C48.0351437,538.484676 48.8687926,539.113959 49.8154419,539.487441 C50.0191285,540.290029 50.1276338,541.129401 50.1276338,541.993702 C50.1276338,542.844543 50.0222866,543.671257 49.8246396,544.462582 Z" id="设置默认"></path>
        </g>
    </g>
</svg>