<?xml version="1.0" encoding="UTF-8"?>
<svg width="24px" height="24px" viewBox="0 0 24 24" version="1.1" xmlns="http://www.w3.org/2000/svg" xmlns:xlink="http://www.w3.org/1999/xlink">
    <!-- Generator: Sketch 49.1 (51147) - http://www.bohemiancoding.com/sketch -->
    <title>icon_guanli</title>
    <desc>Created with Sketch.</desc>
    <defs></defs>
    <g id="icon_guanli" stroke="none" stroke-width="1" fill="none" fill-rule="evenodd">
        <path d="M16.3106749,12.9045481 C16.0749687,12.6627209 15.5161924,12.6339123 15.2628951,12.8557164 C15.1687403,12.9384678 15.1705381,13.1280893 15.4058411,13.3694157 L19.025163,17.0892784 C19.491683,17.8448013 18.2900229,18.9491251 17.6680198,18.9491251 C17.3318078,18.9491251 17.0327805,19.0816336 16.4021247,18.6232067 C16.3894061,18.6078734 16.3840297,18.5878607 16.369026,18.5733563 L15.152947,17.3310019 L15.0231061,17.1975782 L15.0231061,17.1984934 L14.0422293,16.1969647 C14.043523,16.1960495 14.0449176,16.1951171 14.0467153,16.1940983 L13.3708134,15.7165739 C12.5632091,16.2541709 11.8673909,16.3252772 10.8336301,16.3252772 C7.98195223,16.3252772 5.67007178,13.9497145 5.67007178,11.0190803 C5.67007178,10.4806026 6.05916437,9.30421931 6.20484896,8.8150913 L8.95149481,11.6221096 C8.97003342,11.6411657 8.99448949,11.6495472 9.01437221,11.6658371 C9.03564273,11.6974602 9.04877132,11.7332137 9.07635243,11.7611624 C9.31210911,12.0033936 9.5568545,12.3339569 9.97626347,11.9755071 L11.7859748,10.1156189 C12.2759193,9.58322963 11.9786763,9.1782447 11.6443663,8.77601562 C11.6285058,8.756963 11.604547,8.75139259 11.5860084,8.73606623 C11.566082,8.70720583 11.5538506,8.6732827 11.5285478,8.64815201 L9.04698367,6.16244867 C9.38269162,5.9564337 10.030542,5.73278891 10.4562615,5.70398032 C13.3015213,5.50960344 16.1030068,7.92420045 16.1030068,10.8548933 C16.1030068,10.9111844 16.0903721,10.9855612 16.0740748,11.0636711 L16.7621913,11.0636711 C16.7621913,11.0571786 16.7630818,11.0511524 16.7630818,11.0446185 C16.7630818,7.70613296 14.1300131,5 10.8815476,5 C9.87402386,5 8.99628053,5.47149818 8.16700914,5.92997344 C7.87518633,6.16055964 8.25160399,6.46746687 8.43755134,6.65902574 L11.140806,9.4543956 L9.5871709,11.0636676 L6.87805255,8.26221971 C6.68306605,8.06136072 6.17676717,7.38206214 5.90487751,7.78979946 C5.35518744,8.71001002 5,9.8868699 5,11.044615 C5,14.3831005 7.63311907,17.0892749 10.8815443,17.0892749 C11.7131074,17.0892749 12.5016792,16.9074167 13.2178169,16.5861121 L15.7813112,19.2043308 C15.7839826,19.2071799 15.7876621,19.2081124 15.7908543,19.2108578 C16.2152399,19.6920567 16.8214295,20 17.5027918,20 C18.7831865,20 21.0186174,18.1646762 19.4776673,16.1592669 C19.4491453,16.0695673 16.3106749,12.9045481 16.3106749,12.9045481 Z" id="Shape" stroke="#666666" stroke-width="0.2" fill="#666666" fill-rule="nonzero"></path>
    </g>
</svg>