<?xml version="1.0" encoding="UTF-8"?>
<svg width="23px" height="15px" viewBox="0 0 23 15" version="1.1" xmlns="http://www.w3.org/2000/svg" xmlns:xlink="http://www.w3.org/1999/xlink">
    <!-- Generator: Sketch 49.1 (51147) - http://www.bohemiancoding.com/sketch -->
    <title>报表默认</title>
    <desc>Created with Sketch.</desc>
    <defs></defs>
    <g id="Page-1" stroke="none" stroke-width="1" fill="none" fill-rule="evenodd">
        <g id="首页深蓝-copy" transform="translate(-29.000000, -407.000000)" fill="#FFFFFF" fill-rule="nonzero">
            <g id="报表默认" transform="translate(29.000000, 407.000000)">
                <polygon id="Shape" points="22.8811777 15 0 15 0 0 1.08510169 0 1.08510169 14.186551 22.8811777 14.186551"></polygon>
                <polygon id="Shape" points="10.2448895 13 7.25211307 7.72375691 5.22235875 10.1878453 3 10.1878453 3 9.35911602 4.6000983 9.35911602 7.42990177 5.91712707 10.0596929 10.5469613 13.8451107 1 17.2082802 9.16574586 20.4973712 9.16574586 20.4973712 9.99447514 16.3860075 9.99447514 13.8673343 3.87292818"></polygon>
                <path d="M21,11 C19.8954305,11 19,10.1045695 19,9 C19,7.8954305 19.8954305,7 21,7 C22.1045695,7 23,7.8954305 23,9 C23,10.1045695 22.1045695,11 21,11 Z M21,8.171875 C20.5426392,8.171875 20.171875,8.54263919 20.171875,9 C20.171875,9.45736081 20.5426392,9.828125 21,9.828125 C21.4573608,9.828125 21.828125,9.45736081 21.828125,9 C21.8302098,8.7790171 21.7438824,8.56636766 21.5883523,8.40937029 C21.4328222,8.25237292 21.2209927,8.16405267 21,8.1640625 L21,8.171875 Z" id="Shape"></path>
            </g>
        </g>
    </g>
</svg>