<?xml version="1.0" encoding="UTF-8"?>
<svg width="24px" height="24px" viewBox="0 0 24 24" version="1.1" xmlns="http://www.w3.org/2000/svg" xmlns:xlink="http://www.w3.org/1999/xlink">
    <!-- Generator: Sketch 49.1 (51147) - http://www.bohemiancoding.com/sketch -->
    <title>icon_rili</title>
    <desc>Created with Sketch.</desc>
    <defs></defs>
    <g id="icon_rili" stroke="none" stroke-width="1" fill="none" fill-rule="evenodd">
        <path d="M12.7157762,11.2630073 L11.2630852,11.2630073 L11.2630852,12.7157178 L12.7157762,12.7157178 L12.7157762,11.2630073 Z M12.7157762,13.8051192 L11.2630852,13.8051192 L11.2630852,15.2578297 L12.7157762,15.2578297 L12.7157762,13.8051192 Z M18.5265401,5.3553674 L17.0738297,5.3553674 L17.0738297,4.36328954 C17.0738297,4.16260827 16.8138783,4 16.6132165,4 C16.4125547,4 16.1530511,4.16262774 16.1530511,4.36328954 L16.1530511,5.3553674 L7.82618005,5.3553674 L7.82618005,4.36328954 C7.82618005,4.16260827 7.58569343,4 7.38503163,4 C7.18436983,4 6.90540146,4.16262774 6.90540146,4.36328954 L6.90540146,5.3553674 L5.452691,5.3553674 C4.65043309,5.3553674 4,6.00581995 4,6.80805839 L4,18.5264818 C4,19.3287397 4.65045255,19.9791922 5.452691,19.9791922 L18.5265012,19.9791922 C19.3287591,19.9791922 19.9792117,19.3287397 19.9792117,18.5264818 L19.9792117,6.80807786 C19.9792117,6.00581995 19.3287591,5.35538686 18.5265012,5.35538686 L18.5265401,5.3553674 Z M18.9606813,18.2345109 C18.9606813,18.6354063 18.6354647,18.9606423 18.2345499,18.9606423 L5.74468127,18.9606423 C5.34331873,18.9606423 5.01810219,18.6354258 5.01810219,18.2345109 L5.01810219,9.81076399 L18.9606813,9.81076399 L18.9606618,18.4291582 L18.9606813,18.2345109 Z M18.9606813,8.92848662 L5.01812165,8.92848662 L5.01812165,7.10004866 C5.01812165,6.69868613 5.3433382,6.37346959 5.74470073,6.37346959 L6.90544039,6.37346959 L6.90544039,7.26822384 C6.90544039,7.46890511 7.16490511,7.63151338 7.36560584,7.63151338 C7.56630657,7.63151338 7.82621898,7.46888564 7.82621898,7.26822384 L7.82621898,6.37346959 L16.1531095,6.37346959 L16.1531095,7.26822384 C16.1531095,7.46890511 16.4125742,7.63151338 16.6132749,7.63151338 C16.8139562,7.63151338 17.0738881,7.46888564 17.0738881,7.26822384 L17.0738881,6.37346959 L18.2346083,6.37346959 C18.6355036,6.37346959 18.9607397,6.69868613 18.9607397,7.10004866 L18.9607397,9.08420438 L18.9606813,8.92848662 Z M16.3477372,13.8051192 L14.8950268,13.8051192 L14.8950268,15.2578297 L16.3477372,15.2578297 L16.3477372,13.8051192 Z M16.3477372,11.2630073 L14.8950268,11.2630073 L14.8950268,12.7157178 L16.3477372,12.7157178 L16.3477372,11.2630073 Z M12.7157762,16.3476983 L11.2630852,16.3476983 L11.2630852,17.8004088 L12.7157762,17.8004088 L12.7157762,16.3476983 Z M9.08426277,16.3476983 L7.63155231,16.3476983 L7.63155231,17.8004088 L9.08426277,17.8004088 L9.08426277,16.3476983 Z M9.08426277,11.2630073 L7.63155231,11.2630073 L7.63155231,12.7157178 L9.08426277,12.7157178 L9.08426277,11.2630073 Z M9.08426277,13.8051192 L7.63155231,13.8051192 L7.63155231,15.2578297 L9.08426277,15.2578297 L9.08426277,13.8051192 Z" id="时间" fill="#666666" fill-rule="nonzero"></path>
    </g>
</svg>