<?xml version="1.0" encoding="UTF-8"?>
<svg width="24px" height="24px" viewBox="0 0 24 24" version="1.1" xmlns="http://www.w3.org/2000/svg" xmlns:xlink="http://www.w3.org/1999/xlink">
    <!-- Generator: Sketch 49.1 (51147) - http://www.bohemiancoding.com/sketch -->
    <title>icon_shuaxin</title>
    <desc>Created with Sketch.</desc>
    <defs></defs>
    <g id="icon_shuaxin" stroke="none" stroke-width="1" fill="none" fill-rule="evenodd">
        <path d="M19.619788,7.86991341 C19.3215237,7.76214932 18.9925106,7.91917702 18.8879644,8.21783748 L18.4451803,9.46174291 C17.9255241,8.28865384 17.1045287,7.25719761 16.0590664,6.48437512 C12.7351114,4.02119598 7.99978219,4.69241231 5.50912204,7.98691439 C4.30376552,9.58182295 3.79333393,11.5462083 4.07622372,13.5167516 C4.35911352,15.4965319 5.4076507,17.248468 7.02196743,18.4461889 C8.37491862,19.4468554 9.95848648,19.9333333 11.5297549,19.9333333 C13.8266969,19.9333333 16.0928902,18.9018771 17.5719118,16.9467286 C18.2268632,16.0815369 18.6727221,15.1147391 18.9033388,14.067888 C18.9709863,13.7569116 18.7741934,13.4520932 18.4667045,13.3843558 C18.1592157,13.3166183 17.8517267,13.5105936 17.7840791,13.8215701 C17.5903611,14.7052356 17.2121498,15.5242426 16.6586698,16.2539595 C14.5462209,19.0465888 10.5273409,19.616199 7.7045928,17.5224967 C6.33626718,16.5095143 5.45069914,15.0285278 5.21085777,13.353566 C4.97101643,11.6878411 5.40150089,10.0282742 6.42236407,8.67968353 C8.53173796,5.8870542 12.5475431,5.31436502 15.3733661,7.40806731 C16.3973042,8.16549488 17.1629516,9.21542498 17.5780616,10.40083 L15.6070577,9.63108649 C15.3118684,9.51716444 14.9797803,9.6618762 14.8629346,9.95745773 C14.7460887,10.2530393 14.8936834,10.5855684 15.1888728,10.7025694 L18.0915681,11.8387108 C18.1592156,11.8664216 18.229938,11.8787375 18.3006605,11.8787375 C18.3098852,11.8787375 18.3191098,11.8756585 18.3283345,11.8756585 C18.3498588,11.8787375 18.371383,11.8879744 18.3929072,11.8879744 C18.6296736,11.8879744 18.8510656,11.7401836 18.9340877,11.5061816 L19.9672503,8.61194609 C20.0717966,8.30712771 19.9180522,7.97767747 19.619788,7.86991341 Z" id="Shape" stroke="#FFFFFF" stroke-width="0.2" fill="#666666" fill-rule="nonzero"></path>
    </g>
</svg>