<?xml version="1.0" encoding="UTF-8"?>
<svg width="60px" height="60px" viewBox="0 0 60 60" version="1.1" xmlns="http://www.w3.org/2000/svg" xmlns:xlink="http://www.w3.org/1999/xlink">
    <!-- Generator: Sketch 49.1 (51147) - http://www.bohemiancoding.com/sketch -->
    <title>icon_zhuzhuangtu</title>
    <desc>Created with Sketch.</desc>
    <defs></defs>
    <g id="icon_zhuzhuangtu" stroke="none" stroke-width="1" fill="none" fill-rule="evenodd">
        <g id="柱状图-2" transform="translate(18.000000, 16.000000)">
            <path d="M20.0305691,8.13273928 C19.9748574,8.13273928 19.9470015,8.13273928 19.8912897,8.10504871 C19.6127309,8.02197701 19.4177397,7.74507133 19.5013073,7.44047509 L20.7826781,2.31772011 L15.6293392,1.07164458 C15.3507803,0.988572877 15.1557891,0.711667203 15.2393568,0.407070961 C15.3229245,0.130165287 15.6014833,-0.0636686855 15.9078981,0.0194030168 L21.5904987,1.40393139 C21.8690576,1.48700309 22.0640488,1.76390877 21.9804811,2.06850501 L20.559831,7.71738076 C20.5041192,7.96659587 20.2812721,8.13273928 20.0305691,8.13273928 Z M0.559305049,15 C0.364313849,15 0.197178535,14.9169283 0.0857549923,14.7507849 C-0.0813803218,14.5015698 0.00218733525,14.169283 0.280746192,14.0031396 L2.11923465,12.8955169 C2.36993762,12.7293735 2.70420825,12.8124452 2.87134356,13.0893508 C3.03847887,13.338566 2.95491122,13.6708528 2.67635236,13.8369962 L0.837863906,14.9446189 C0.754296249,14.9723094 0.670728592,15 0.559305049,15 Z" id="Shape" fill="#E73B37" fill-rule="nonzero"></path>
            <path d="M5.62720403,28 L1.52644836,28 C1.22166247,28 1,27.7464789 1,27.4647887 L1,21.6619718 C1,21.3521127 1.24937028,21.1267606 1.52644836,21.1267606 L5.62720403,21.1267606 C5.93198992,21.1267606 6.15365239,21.3802817 6.15365239,21.6619718 L6.15365239,27.4647887 C6.15365239,27.7464789 5.90428212,28 5.62720403,28 Z M2.05289673,26.9014085 L5.07304786,26.9014085 L5.07304786,22.1971831 L2.05289673,22.1971831 L2.05289673,26.9014085 Z M14.0503778,28 L9.94962217,28 C9.64483627,28 9.4231738,27.7464789 9.4231738,27.4647887 L9.4231738,17.6901408 C9.4231738,17.3802817 9.67254408,17.1549296 9.94962217,17.1549296 L14.0503778,17.1549296 C14.3551637,17.1549296 14.5768262,17.4084507 14.5768262,17.6901408 L14.5768262,27.4647887 C14.5768262,27.7464789 14.3274559,28 14.0503778,28 Z M10.4760705,26.9014085 L13.4962217,26.9014085 L13.4962217,18.1971831 L10.4760705,18.1971831 L10.4760705,26.9014085 Z M22.4735516,28 L18.372796,28 C18.0680101,28 17.8463476,27.7464789 17.8463476,27.4647887 L17.8463476,12.5352113 C17.8463476,12.2253521 18.0957179,12 18.372796,12 L22.4735516,12 C22.7783375,12 23,12.2535211 23,12.5352113 L23,27.4647887 C23,27.7464789 22.7506297,28 22.4735516,28 Z M18.8992443,26.9014085 L21.9193955,26.9014085 L21.9193955,13.0704225 L18.8992443,13.0704225 L18.8992443,26.9014085 Z" id="Shape" fill="#39393A" fill-rule="nonzero"></path>
            <path d="M5.54687342,12 C5.35621627,12 5.19279586,11.9158332 5.08384892,11.7474996 C4.92042851,11.4949991 5.00213872,11.1583319 5.27450607,10.9899982 L21.1807592,1.08636983 C21.4258898,0.918036204 21.7527307,1.00220302 21.9161511,1.28275906 C22.0795715,1.5352595 21.9978613,1.87192676 21.7254939,2.04026039 L5.81924076,11.9438888 C5.73753056,12 5.62858362,12 5.54687342,12 Z" id="Path" fill="#E73B37"></path>
        </g>
    </g>
</svg>