<?xml version="1.0" encoding="UTF-8"?>
<svg width="23px" height="21px" viewBox="0 0 23 21" version="1.1" xmlns="http://www.w3.org/2000/svg" xmlns:xlink="http://www.w3.org/1999/xlink">
    <!-- Generator: Sketch 49.1 (51147) - http://www.bohemiancoding.com/sketch -->
    <title>凭证默认</title>
    <desc>Created with Sketch.</desc>
    <defs></defs>
    <g id="Page-1" stroke="none" stroke-width="1" fill="none" fill-rule="evenodd">
        <g id="首页深蓝-copy" transform="translate(-29.000000, -277.000000)" fill="#FFFFFF" fill-rule="nonzero">
            <g id="凭证默认" transform="translate(29.000000, 277.000000)">
                <path d="M18.0775786,9.29252351 L9.40879831,17.1941896 C9.25692921,17.3215254 9.17109374,17.5012808 9.17239852,17.6892545 L9.1889465,20.0311266 C9.1910283,20.246061 9.2871757,20.4513625 9.45607827,20.6015275 C9.62580122,20.7545819 9.85548609,20.8397836 10.0943577,20.8382977 L12.6451114,20.8533648 C12.8641161,20.8734331 13.0828481,20.812988 13.2526589,20.6854733 L21.9119832,12.792417 C22.3716681,12.3761978 22.6263789,11.8080678 22.617914,11.2178448 C22.6094492,10.6276218 22.3385321,10.0657414 21.8670672,9.66059349 L21.4557316,9.28391368 C21.0151155,8.86259891 20.4035655,8.62485487 19.7646208,8.62648333 C19.125676,8.6281118 18.5155974,8.86896937 18.0775786,9.29252351 Z M12.2810558,19.8008138 L10.3283935,19.8008138 L10.3283935,18.0185803 L12.2810558,19.8008138 Z M19.940409,13.0765412 L13.2526589,19.1658393 L11.0801448,17.1941896 L17.7655309,11.0984341 L19.940409,13.0765412 Z M21.032576,10.418258 C21.2829538,10.6215035 21.4305831,10.9095129 21.4408649,11.2147877 C21.4511467,11.5200625 21.3231773,11.8157673 21.0869479,12.0326 L20.7749002,12.3167242 L18.6023861,10.3364647 L18.9144339,10.0544929 C19.1314749,9.83389518 19.4413776,9.70783672 19.7666551,9.70783672 C20.0919326,9.70783672 20.4018353,9.83389518 20.6188764,10.0544929 L21.032576,10.418258 Z M12.7207594,6.00141824 L3.6737394,6.00141824 C3.32580659,5.98411023 3.02648291,6.22317932 3,6.53953224 C3.02648291,6.85588517 3.32580659,7.09495426 3.6737394,7.07764625 L12.7207594,7.07764625 C13.0718184,7.09983122 13.3763684,6.85912168 13.4015908,6.53953224 C13.3763684,6.21994281 13.0718184,5.97923326 12.7207594,6.00141824 Z M10.1203617,10.0910847 L3.6737394,10.0910847 C3.44474634,10.0646584 3.21959665,10.161057 3.09588793,10.3384938 C2.97217921,10.5159306 2.97217921,10.7424668 3.09588793,10.9199036 C3.21959665,11.0973404 3.44474634,11.193739 3.6737394,11.1673127 L10.1203617,11.1673127 C10.3493547,11.193739 10.5745044,11.0973404 10.6982131,10.9199036 C10.8219219,10.7424668 10.8219219,10.5159306 10.6982131,10.3384938 C10.5745044,10.161057 10.3493547,10.0646584 10.1203617,10.0910847 Z" id="Shape"></path>
                <path d="M16.0199247,0 L2.4349547,0 C1.08898297,0.010029733 0.00249437254,1.09214023 0,2.42514286 L0,18.1622857 C0.00380888005,19.4921448 1.09211834,20.5689176 2.4349547,20.5714286 L8.42194286,20.5714286 C8.74061308,20.5714286 8.99894634,20.3155913 8.99894634,20 C8.99894634,19.6844087 8.74061308,19.4285714 8.42194286,19.4285714 L2.4349547,19.4285714 C1.72945401,19.4260728 1.15780231,18.8609643 1.15400697,18.1622857 L1.15400697,2.42514286 C1.15645307,1.72329215 1.72632394,1.15282603 2.4349547,1.14285714 L16.0199247,1.14285714 C16.7300898,1.15274263 17.302659,1.72180846 17.3101045,2.42514286 L17.3101045,7.31428571 C17.3647113,7.58060845 17.6011587,7.77200144 17.8755679,7.77200144 C18.1499771,7.77200144 18.3864246,7.58060845 18.4410314,7.31428571 L18.4641115,7.31428571 L18.4641115,2.42514286 C18.4553303,1.09117157 17.3668914,0.0112132241 16.0199247,0 Z" id="Shape"></path>
            </g>
        </g>
    </g>
</svg>