<?xml version="1.0" encoding="UTF-8"?>
<svg width="110px" height="110px" viewBox="0 0 110 110" version="1.1" xmlns="http://www.w3.org/2000/svg" xmlns:xlink="http://www.w3.org/1999/xlink">
    <!-- Generator: Sketch 49.1 (51147) - http://www.bohemiancoding.com/sketch -->
    <title>icon_logo</title>
    <desc>Created with Sketch.</desc>
    <defs></defs>
    <g id="icon_logo" stroke="none" stroke-width="1" fill="none" fill-rule="evenodd">
        <g id="Page-1" transform="translate(14.000000, 29.000000)" fill="#FFFFFF">
            <path d="M44,16.3387469 L43.0383667,17.1847742 C42.3838185,16.5470074 41.6474517,16.2277564 40.8295321,16.2277564 C40.1391219,16.2277564 39.5576259,16.4455723 39.0850442,16.880959 C38.6119312,17.3161008 38.3755076,17.8529226 38.3755076,18.4909345 C38.3755076,18.9353868 38.4801715,19.3298565 38.6894994,19.6745887 C38.899093,20.019321 39.1952867,20.2900595 39.5780805,20.4865593 C39.9608744,20.6830592 40.3861713,20.7813091 40.8539714,20.7813091 C41.2532352,20.7813091 41.6182308,20.7127056 41.9486926,20.5747637 C42.2788888,20.4375569 42.6425563,20.1873994 43.0383667,19.8242912 L43.9707791,20.7217711 C43.4368335,21.2022401 42.9323745,21.5354568 42.4576676,21.7214211 C41.9829608,21.9073854 41.4407802,22 40.8316572,22 C39.708512,22 38.7888505,21.6714386 38.0734697,21.0145607 C37.3580889,20.3574379 37,19.5155758 37,18.4887294 C37,17.8242562 37.1628401,17.2335317 37.488786,16.7170459 C37.8147319,16.200805 38.2814694,15.7852643 38.8889985,15.4711586 C39.496262,15.1570529 40.1505446,15 40.8513149,15 C41.4474214,15 42.0212136,15.1158908 42.573223,15.3481624 C43.1249668,15.580434 43.6004706,15.9107105 44,16.3387469" id="Fill-1"></path>
            <polygon id="Fill-3" points="46 22 47 22 47 15 46 15"></polygon>
            <path d="M50.989763,18.3478302 C50.5438863,18.3478302 50.1722275,18.5024109 49.8756398,18.8118559 C49.5790521,19.1215846 49.4306161,19.5175381 49.4306161,20 C49.4306161,20.4966437 49.5770616,20.8985535 49.870237,21.2065803 C50.1634123,21.5143235 50.5345024,21.6677697 50.9843602,21.6677697 C51.4339336,21.6677697 51.8078673,21.5123381 52.1064455,21.2011913 C52.4050237,20.8897608 52.5537441,20.4898364 52.5537441,20 C52.5537441,19.5104472 52.4072986,19.1127919 52.1141232,18.8067505 C51.8209479,18.5009927 51.4461611,18.3478302 50.989763,18.3478302 M50.9661611,17 C51.5055924,17 52.0134597,17.1344427 52.4883412,17.4038952 C52.9629384,17.6730642 53.3340284,18.0383852 53.6004739,18.4998582 C53.8669194,18.9616148 54,19.4596767 54,19.9946109 C54,20.5332325 53.865782,21.0366834 53.5976303,21.5055309 C53.329763,21.9738111 52.9640758,22.3402666 52.5011374,22.6040465 C52.0387678,22.8683937 51.52891,23 50.971564,23 C50.1509005,23 49.4508057,22.7089912 48.8707109,22.1269736 C48.2903318,21.5446724 48,20.8372885 48,20.0051054 C48,19.1136428 48.3278673,18.3705209 48.9836019,17.7760234 C49.5585782,17.2586745 50.2191469,17 50.9661611,17" id="Fill-5"></path>
            <path d="M55,17 L56.4435206,17 L56.4435206,19.8169792 C56.4435206,20.3656055 56.4800045,20.7464748 56.5535381,20.9595871 C56.6270717,21.1729903 56.7450082,21.338712 56.9073477,21.4570432 C57.0696872,21.5753743 57.2699248,21.6341038 57.5077776,21.6341038 C57.7453476,21.6341038 57.9469993,21.5759558 58.1132983,21.4596598 C58.2793144,21.3430731 58.4023418,21.1718273 58.482663,20.9462131 C58.5423384,20.777584 58.5720346,20.4173572 58.5720346,19.8655328 L58.5720346,17 L60,17 L60,19.4785579 C60,20.4999273 59.9210928,21.1988661 59.7644098,21.5753743 C59.5726568,22.0341619 59.2901182,22.386248 58.9173596,22.6319232 C58.5440353,22.877017 58.0697438,23 57.494485,23 C56.8705809,23 56.3657447,22.8566652 55.9808247,22.5697049 C55.5950563,22.2830353 55.3241134,21.8832679 55.1671475,21.3712749 C55.0557158,21.0159907 55,20.3711295 55,19.4355284 L55,17 Z" id="Fill-6"></path>
            <path d="M64.0159935,17.93515 C63.5664473,17.93515 63.1929782,18.0711872 62.895298,18.3430151 C62.597906,18.614843 62.4494981,18.9635615 62.4494981,19.3886777 C62.4494981,19.8172441 62.6004995,20.1696592 62.9033668,20.4459231 C63.2059459,20.7226799 63.5788387,20.8609351 64.0214687,20.8609351 C64.4782191,20.8609351 64.8571634,20.7248979 65.1580135,20.45307 C65.4588636,20.1809956 65.6092887,19.8246374 65.6092887,19.3842417 C65.6092887,18.9527179 65.4588636,18.6035065 65.1580135,18.3358682 C64.8571634,18.0687227 64.4764901,17.93515 64.0159935,17.93515 Z M65.545603,15 L67,15 L67,21.8725884 L65.545603,21.8725884 L65.545603,21.3484016 C65.2614668,21.5793198 64.9767542,21.7456696 64.6914653,21.8474511 C64.4056001,21.9492325 64.0958167,22 63.7624033,22 C63.0137361,22 62.3659286,21.7515843 61.8198453,21.2552457 C61.2728976,20.7584143 61,20.1405788 61,19.4024785 C61,18.637023 61.2642524,18.0095761 61.7930455,17.5203845 C62.3218385,17.0314392 62.9638826,16.7867202 63.7200423,16.7867202 C64.067576,16.7867202 64.3940733,16.842663 64.699246,16.955288 C65.0041304,17.0676665 65.2862495,17.2362343 65.545603,17.4609914 L65.545603,15 Z" id="Fill-7"></path>
            <path d="M18,35.6502287 C18,41.4499238 9,41.4499238 9,35.6502287 C9,29.8508056 11.0147956,19 13.5,19 C15.9852044,19 18,29.8508056 18,35.6502287" id="Fill-8"></path>
            <path d="M18,12.0001222 C18,14.2091851 16.2091851,16 13.9998778,16 C11.7908149,16 10,14.2091851 10,12.0001222 C10,9.79081492 11.7908149,8 13.9998778,8 C16.2091851,8 18,9.79081492 18,12.0001222" id="Fill-9"></path>
            <polygon id="Fill-10" points="14 18.613483 7 16 7 22"></polygon>
            <polygon id="Fill-11" points="14 18.613483 21 16 21 22"></polygon>
            <path d="M55,33.008 L55.0005,33.008 C55.0005,33.005 55,33.0025 55,33 L55,33.008 Z" id="Fill-12"></path>
            <path d="M55,33 L55,33.008 C55,33.005 55.0005,33.0025 55.0005,33 L55,33 Z" id="Fill-13"></path>
            <path d="M57.4424533,32.9918943 L57.4424533,33.0001329 L57.4424533,33.4458133 L58.8504527,33.4458133 L64.4537482,33.4458133 L66.1360125,33.4458133 L66.9776761,33.4458133 C66.9869777,33.2977847 67,33.1508191 67,33.0001329 C67,29.1341142 63.8661516,26 60.0001329,26 C56.1341142,26 53,29.1341142 53,33.0001329 C53,36.8661516 56.1341142,40 60.0001329,40 C62.9349266,40 65.4442377,38.192031 66.4844245,35.6306308 L63.6104899,35.6306308 C62.7961996,36.7428387 61.4844056,37.468365 60.0001329,37.468365 C57.5306859,37.468365 55.5284459,35.4685169 55.5239279,33.0001329 L55.5236622,33.0001329 L55.5236622,32.9961465 L55.5236622,32.9918943 L55.5239279,32.9918943 C55.5284459,30.5235103 57.5306859,28.5236622 60.0001329,28.5236622 C61.9308833,28.5236622 63.5714231,29.7482868 64.1994153,31.4613793 L57.4424533,31.4613793 L57.4424533,32.9918943 Z" id="Fill-14"></path>
            <path d="M39,33.008 L39.001,33.008 C39.001,33.005 39.0005,33.0025 39.0005,33 C39.0005,33.0025 39,33.005 39,33.008" id="Fill-15"></path>
            <path d="M39,33 C39,33.0025 39.0005,33.005 39.0005,33.008 C39.0005,33.005 39.001,33.0025 39.001,33 L39,33 Z" id="Fill-16"></path>
            <path d="M41.442369,32.9918943 L41.442369,33.0001329 L41.442369,33.4458133 L42.8503417,33.4458133 L48.4535308,33.4458133 L50.1357631,33.4458133 L50.9774108,33.4458133 C50.9867122,33.2977847 51,33.1508191 51,33.0001329 C51,29.1341142 47.8659453,26 44,26 C40.1340547,26 37,29.1341142 37,33.0001329 C37,36.8661516 40.1340547,40 44,40 C46.934738,40 49.4440015,38.192031 50.4841686,35.6306308 L47.6102885,35.6306308 C46.7960137,36.7428387 45.4842445,37.468365 44,37.468365 C41.5305998,37.468365 39.5283979,35.4685169 39.5241458,33.0001329 L39.5236143,33.0001329 C39.5236143,32.9985383 39.52388,32.9974753 39.52388,32.9961465 C39.52388,32.9945519 39.5236143,32.9932231 39.5236143,32.9918943 L39.5241458,32.9918943 C39.5283979,30.5235103 41.5305998,28.5236622 44,28.5236622 C45.9307137,28.5236622 47.5712225,29.7482868 48.1992027,31.4613793 L41.442369,31.4613793 L41.442369,32.9918943 Z" id="Fill-17"></path>
            <polygon id="Fill-18" points="29.701418 32.4341355 36.1051842 25.6712347 31.9096224 25.6712347 25.5233964 32.2916041 25.5233964 19 23 19 23 40 25.5233964 40 25.5233964 32.9136832 32.3351051 40 37 40"></polygon>
            <path d="M80.4763378,33.1646547 L80.4760721,33.1646547 C80.4715541,35.6910523 78.4693141,37.7376302 75.9998671,37.7376302 C73.5304201,37.7376302 71.5284459,35.6910523 71.5239279,33.1646547 L71.5233964,33.1646547 C71.5233964,33.1630226 71.5236622,33.1616626 71.5236622,33.1603026 C71.5236622,33.1589425 71.5233964,33.1575825 71.5233964,33.1562225 L71.5239279,33.1562225 C71.5284459,30.6298249 73.5304201,28.582703 75.9998671,28.582703 C78.4693141,28.582703 80.4715541,30.6298249 80.4760721,33.1562225 L80.4763378,33.1562225 L80.4763378,33.1603026 L80.4763378,33.1646547 Z M75.9998671,26 C74.2971393,26 72.7371249,26.6234392 71.5233964,27.6581524 L71.5233964,26 L69,26 L69,47 L71.5233964,47 L71.5233964,38.6708849 C72.7371249,39.7055982 74.2971393,40.3290374 75.9998671,40.3290374 C79.8658858,40.3290374 83,37.1215352 83,33.1646547 C83,29.2077742 79.8658858,26 75.9998671,26 Z" id="Fill-19"></path>
            <path d="M39.0062565,41 C39.3761926,41 39.7317778,41.2237958 39.9079758,41.6100616 C42.212901,46.6602901 46.846404,49.7975005 51.9999968,49.7975005 C57.1535895,49.7975005 61.7870925,46.6602901 64.0920177,41.6100616 C64.3399706,41.0662668 64.9448374,40.8442149 65.4426035,41.1162576 C65.9401038,41.3880096 66.1420804,42.0492245 65.8938617,42.5933099 C63.245842,48.3954342 57.9221637,52 51.9999968,52 C46.0778298,52 40.7541515,48.3954342 38.1061318,42.5933099 C37.8579131,42.0492245 38.0598898,41.3880096 38.5576558,41.1162576 C38.701697,41.0374931 38.8553055,41 39.0062565,41" id="Fill-20"></path>
            <path d="M26.9937338,10.9998504 C26.6240623,10.9998504 26.2682103,10.7763423 26.0920117,10.3900716 C23.7870792,5.33977834 19.1538273,2.20223712 13.9999525,2.20223712 C8.84634342,2.20223712 4.21282578,5.33977834 1.90789327,10.3900716 C1.65993961,10.9338734 1.05507089,11.1559281 0.557303267,10.8835913 C0.0598014018,10.6121264 -0.142175851,9.9506124 0.106309322,9.40652003 C2.75433741,3.60432131 8.07803258,0 13.9999525,0 C19.9221381,0 25.2458333,3.60432131 27.8938614,9.40652003 C28.1420808,9.9506124 27.9401036,10.6121264 27.4426017,10.8835913 C27.2982943,10.9623568 27.1446853,10.9998504 26.9937338,10.9998504" id="Fill-21"></path>
        </g>
    </g>
</svg>