<?xml version="1.0" encoding="UTF-8"?>
<svg width="60px" height="60px" viewBox="0 0 60 60" version="1.1" xmlns="http://www.w3.org/2000/svg" xmlns:xlink="http://www.w3.org/1999/xlink">
    <!-- Generator: Sketch 49.1 (51147) - http://www.bohemiancoding.com/sketch -->
    <title>icon_bingzhuangtu</title>
    <desc>Created with Sketch.</desc>
    <defs></defs>
    <g id="icon_bingzhuangtu" stroke="none" stroke-width="1" fill="none" fill-rule="evenodd">
        <g id="load" transform="translate(18.000000, 15.000000)">
            <path d="M14.0503778,38 L9.94962217,38 C9.64483627,38 9.4231738,37.6197183 9.4231738,37.1971831 L9.4231738,14.8028169 C9.4231738,14.3380282 9.67254408,14 9.94962217,14 L14.0503778,14 C14.3551637,14 14.5768262,14.3802817 14.5768262,14.8028169 L14.5768262,37.1971831 C14.5768262,37.6197183 14.3274559,38 14.0503778,38 Z M10.4760705,36.3521127 L13.4962217,36.3521127 L13.4962217,15.6056338 L10.4760705,15.6056338 L10.4760705,36.3521127 Z" id="Shape" fill="#39393A" fill-rule="nonzero" transform="translate(12.000000, 26.000000) rotate(90.000000) translate(-12.000000, -26.000000) "></path>
            <path d="M12.4876445,19.7707602 C12.4319327,19.7707602 12.4040769,19.7707602 12.3483651,19.7430696 C12.0698062,19.6599979 11.874815,19.3830922 11.9583827,19.078496 L13.2397534,13.955741 L8.08641457,12.7096655 C7.80785572,12.6265938 7.61286452,12.3496881 7.69643217,12.0450918 C7.77999983,11.7681862 8.05855869,11.5743522 8.36497343,11.6574239 L14.0475741,13.0419523 C14.326133,13.125024 14.5211242,13.4019296 14.4375565,13.7065259 L13.0169063,19.3554016 C12.9611946,19.6046168 12.7383475,19.7707602 12.4876445,19.7707602 Z" id="Shape" fill="#E73B37" fill-rule="nonzero" transform="translate(11.066994, 15.704391) rotate(122.000000) translate(-11.066994, -15.704391) "></path>
            <path d="M4.5282365,13.0913057 C4.33757935,13.0913057 4.55209123,13.1180221 4.44314429,12.9496885 C4.27972388,12.6971881 4.12402857,12.4835134 4.39639592,12.3151798 L18.0272955,4.44953915 C18.2724261,4.28120552 18.595817,3.97231152 18.7592374,4.25286756 C18.9226578,4.505368 18.7895824,5.09656864 18.5172151,5.26490227 L5.0296312,13.3690603 C4.947921,13.4251715 4.6099467,13.0913057 4.5282365,13.0913057 Z" id="Path" fill="#E73B37" transform="translate(11.539304, 8.757557) rotate(-59.000000) translate(-11.539304, -8.757557) "></path>
        </g>
    </g>
</svg>