<?xml version="1.0" encoding="UTF-8"?>
<svg width="24px" height="24px" viewBox="0 0 24 24" version="1.1" xmlns="http://www.w3.org/2000/svg" xmlns:xlink="http://www.w3.org/1999/xlink">
    <!-- Generator: Sketch 49.1 (51147) - http://www.bohemiancoding.com/sketch -->
    <title>icon_jinggao</title>
    <desc>Created with Sketch.</desc>
    <defs></defs>
    <g id="icon_jinggao" stroke="none" stroke-width="1" fill="none" fill-rule="evenodd">
        <g id="预警" transform="translate(2.000000, 3.000000)" fill-rule="nonzero">
            <path d="M9.99365328,0.0119098923 C9.23827926,0.0109256697 8.54007939,0.414064362 8.16329089,1.06875612 L0.291478942,14.7074633 C-0.0871696532,15.3607058 -0.0871696532,16.1666596 0.291478942,16.8199021 C0.667244872,17.4759405 1.36580862,17.8802462 2.12184133,17.8792556 L17.8679726,17.8792556 C18.6232596,17.8790133 19.3210226,17.4757764 19.6983371,16.8214887 C20.0756516,16.167201 20.0751729,15.3613022 19.6970813,14.7074633 L11.8252693,1.06875612 C11.4484488,0.413484534 10.7495446,0.0102153825 9.99365328,0.0119098923 Z" id="Shape" fill="#FFA20A"></path>
            <path d="M9.99365328,1.27686582 C10.2794907,1.27686582 10.5653281,1.41853085 10.7308129,1.70060725 L18.6013712,15.3380607 C18.752886,15.601004 18.7529575,15.9247252 18.6015587,16.1877352 C18.45016,16.4507453 18.1701902,16.613264 17.8667189,16.6142997 L2.12184133,16.6142997 C1.81814602,16.6137098 1.53776716,16.4513673 1.38606317,16.1882759 C1.23435918,15.9251845 1.23431048,15.6011977 1.38593536,15.3380607 L9.25774731,1.70060725 C9.4094859,1.43778641 9.69017528,1.27616289 9.99365328,1.27686582" id="Shape" fill="#FFFFFF"></path>
            <path d="M8.95561214,13.2682468 C8.95561214,13.8422335 9.42092028,14.3075416 9.99490695,14.3075416 C10.5688936,14.3075416 11.0342018,13.8422335 11.0342018,13.2682468 C11.0342018,12.6942601 10.5688936,12.228952 9.99490695,12.228952 C9.42092028,12.228952 8.95561214,12.6942601 8.95561214,13.2682468 Z M10.0124584,5.5105191 C9.18001959,5.5105191 8.95185113,6.17245837 8.95185113,7.07259549 C8.95185113,7.97273262 9.66268364,11.4491675 10.002429,11.4491675 C10.3421743,11.4491675 11.0342018,7.982762 11.0342018,7.07259549 C11.0342018,6.16242899 10.8135553,5.5105191 10.0124584,5.5105191 Z" id="Shape" fill="#FFA20A"></path>
        </g>
    </g>
</svg>