<?xml version="1.0" encoding="UTF-8"?>
<svg width="30px" height="31px" viewBox="0 0 30 31" version="1.1" xmlns="http://www.w3.org/2000/svg" xmlns:xlink="http://www.w3.org/1999/xlink">
    <!-- Generator: Sketch 49.1 (51147) - http://www.bohemiancoding.com/sketch -->
    <title>icon_chaxun</title>
    <desc>Created with Sketch.</desc>
    <defs></defs>
    <g id="icon_chaxun" stroke="none" stroke-width="1" fill="none" fill-rule="evenodd">
        <g id="搜索" transform="translate(5.000000, 6.000000)" fill="#666666" fill-rule="nonzero">
            <path d="M19.5633188,17.7001456 L14.3464338,12.4832606 C15.2780204,11.1790393 15.8369723,9.59534207 15.8369723,7.91848617 C15.8369723,3.54002911 12.2969432,0 7.91848617,0 C3.54002911,0 0,3.54002911 0,7.91848617 C0,12.2969432 3.54002911,15.8369723 7.91848617,15.8369723 C9.59534207,15.8369723 11.1790393,15.2780204 12.4832606,14.3464338 L17.7001456,19.5633188 C18.1659389,20.0291121 19.0043668,20.0291121 19.5633188,19.5633188 C20.1222707,19.0043668 20.1222707,18.2590975 19.5633188,17.7001456 Z M7.91848617,13.9737991 C4.56477438,13.9737991 1.86317322,11.272198 1.86317322,7.91848617 C1.86317322,4.56477438 4.56477438,1.86317322 7.91848617,1.86317322 C11.272198,1.86317322 13.9737991,4.56477438 13.9737991,7.91848617 C13.9737991,11.272198 11.272198,13.9737991 7.91848617,13.9737991 Z" id="Shape"></path>
        </g>
    </g>
</svg>