<?xml version="1.0" encoding="UTF-8"?>
<svg width="24px" height="24px" viewBox="0 0 24 24" version="1.1" xmlns="http://www.w3.org/2000/svg" xmlns:xlink="http://www.w3.org/1999/xlink">
    <!-- Generator: Sketch 49.1 (51147) - http://www.bohemiancoding.com/sketch -->
    <title>icon_pifu</title>
    <desc>Created with Sketch.</desc>
    <defs></defs>
    <g id="icon_pifu" stroke="none" stroke-width="1" fill="none" fill-rule="evenodd">
        <g id="换肤" transform="translate(1.000000, 2.000000)" fill="#666666" fill-rule="nonzero">
            <path d="M21.7431774,6.68498395 L16.2620564,0.359673753 C16.0818568,0.151986117 15.8307991,0.0261518438 15.5565293,0.00660477223 C15.3060824,-0.0135531453 15.06602,0.064024295 14.867495,0.213070716 C14.7972477,0.257051627 14.740439,0.316303688 14.7025666,0.39204859 C14.6738568,0.476956182 14.6579748,0.505055098 14.6536989,0.538040781 C14.4209666,2.36752451 12.8523141,3.74681475 11.0051158,3.74681475 C9.15975011,3.74681475 7.59170846,2.36935705 7.35653275,0.542316703 C7.35347852,0.519104555 7.34126161,0.50016833 7.3345423,0.478177874 C7.32599046,0.447024729 7.31927115,0.415871584 7.30338915,0.386550976 C7.28628547,0.354176139 7.26185163,0.329131453 7.23802863,0.30225423 C7.19710195,0.251554013 7.19221518,0.249110629 7.18793926,0.246056399 C6.96436963,0.0695219089 6.71331193,-0.0147748373 6.45248069,0.00660477223 C6.17821085,0.0261518438 5.92776399,0.151375271 5.74695358,0.359673753 L0.267665076,6.68498395 C-0.10434013,7.11440868 -0.0579158351,7.76679219 0.371508894,8.1387974 L3.49720781,10.8466777 C3.68657007,11.0109952 3.92296746,11.098957 4.17097093,11.098957 C4.19601562,11.098957 4.2210603,11.0983462 4.24610499,11.0965137 C4.34750542,11.0891835 4.44401909,11.0629171 4.53625683,11.0280989 L4.53625683,17.5647618 C4.53625683,18.448656 5.25522256,19.1682325 6.13972755,19.1682325 L15.9425839,19.1682325 C16.8264781,19.1682325 17.5460547,18.4492668 17.5460547,17.5647618 L17.5460547,11.0543653 C17.6169128,11.0751341 17.6896035,11.0904052 17.7653484,11.0959028 C17.7910039,11.0977354 17.8154377,11.0983462 17.8404824,11.0983462 C18.0884859,11.0983462 18.3248833,11.0097735 18.5142456,10.8460668 L21.6399445,8.1375757 C22.0681475,7.76618134 22.1145718,7.11440868 21.7431774,6.68498395 Z M21.038872,7.44609805 L17.9131731,10.1545892 C17.8728573,10.1894074 17.786728,10.1832989 17.7519098,10.1429831 C17.6951011,10.0776226 17.6224104,10.0397501 17.5454438,10.0153163 L17.5454438,8.57249805 C17.5454438,8.31960781 17.3401996,8.11436356 17.0873093,8.11436356 C16.8344191,8.11436356 16.6291748,8.31960781 16.6291748,8.57249805 L16.6291748,17.5647618 C16.6291748,17.9434863 16.3213085,18.2519636 15.9419731,18.2519636 L6.1391167,18.2519636 C5.76039219,18.2519636 5.45191497,17.6498432 5.45191497,17.2705078 L5.45191497,8.5718872 C5.45191497,8.31899696 5.24667072,8.11375271 4.99378048,8.11375271 C4.74089024,8.11375271 4.53564599,8.31899696 4.53564599,8.5718872 L4.53564599,9.9957692 C4.43241302,10.0116512 4.33223427,10.0574646 4.25832191,10.1429831 C4.222282,10.1839098 4.13676356,10.1894074 4.09705857,10.1545892 L0.971359653,7.44609805 C0.923713666,7.40517137 0.918826898,7.33248069 0.959753579,7.28483471 L6.44026377,0.959524512 C6.45248069,0.944864208 6.475082,0.940588286 6.49585076,0.935090672 C6.90572842,3.07854924 8.79446421,4.66369458 11.004505,4.66369458 C13.2157675,4.66369458 15.1032816,3.07916009 15.5131592,0.935701518 C15.533928,0.941199132 15.5565293,0.945475054 15.5687462,0.960135358 L21.0498672,7.28544555 C21.0914048,7.33248069 21.086518,7.40456052 21.038872,7.44609805 Z" id="Shape"></path>
        </g>
    </g>
</svg>