<?xml version="1.0" encoding="UTF-8"?>
<svg width="24px" height="24px" viewBox="0 0 24 24" version="1.1" xmlns="http://www.w3.org/2000/svg" xmlns:xlink="http://www.w3.org/1999/xlink">
    <!-- Generator: Sketch 49.1 (51147) - http://www.bohemiancoding.com/sketch -->
    <title>icon_xuanzhong</title>
    <desc>Created with Sketch.</desc>
    <defs></defs>
    <g id="icon_xuanzhong" stroke="none" stroke-width="1" fill="none" fill-rule="evenodd">
        <g id="选中-copy-10" transform="translate(3.000000, 3.000000)" fill="#666666" fill-rule="nonzero">
            <path d="M2.25,1.125 C1.62867966,1.125 1.125,1.62867966 1.125,2.25 L1.125,15.75 C1.125,16.3713203 1.62867966,16.875 2.25,16.875 L15.75,16.875 C16.3713203,16.875 16.875,16.3713203 16.875,15.75 L16.875,2.25 C16.875,1.62867966 16.3713203,1.125 15.75,1.125 L2.25,1.125 Z M2.25,0 L15.75,0 C16.9926407,7.6089797e-17 18,1.00735931 18,2.25 L18,15.75 C18,16.9926407 16.9926407,18 15.75,18 L2.25,18 C1.00735931,18 1.52179594e-16,16.9926407 0,15.75 L0,2.25 C-1.52179594e-16,1.00735931 1.00735931,2.28269391e-16 2.25,0 Z" id="Shape"></path>
            <path d="M11.94525,6.38775 C12.0718476,6.22488925 12.2774323,6.14438638 12.4809567,6.17797797 C12.6844811,6.21156957 12.8532928,6.35386639 12.9208414,6.54877087 C12.98839,6.74367534 12.9438384,6.95991814 12.80475,7.11225 L9.007875,11.61225 C8.90739894,11.7314279 8.7619729,11.8035676 8.60629198,11.8114583 C8.45061105,11.8193489 8.29863624,11.762283 8.186625,11.653875 L5.2335,8.789625 C5.08013682,8.65186238 5.01442023,8.44124283 5.06223025,8.24071102 C5.11004028,8.04017921 5.26371631,7.88186641 5.46273876,7.82811821 C5.66176121,7.77437001 5.87424066,7.83379851 6.0165,7.983 L8.5365,10.4265 L11.94525,6.38775 Z" id="Shape"></path>
        </g>
    </g>
</svg>