<?xml version="1.0" encoding="UTF-8"?>
<svg width="24px" height="24px" viewBox="0 0 24 24" version="1.1" xmlns="http://www.w3.org/2000/svg" xmlns:xlink="http://www.w3.org/1999/xlink">
    <!-- Generator: Sketch 49.1 (51147) - http://www.bohemiancoding.com/sketch -->
    <title>icon_gonggao</title>
    <desc>Created with Sketch.</desc>
    <defs></defs>
    <g id="icon_gonggao" stroke="none" stroke-width="1" fill="none" fill-rule="evenodd">
        <g id="公告" transform="translate(4.000000, 4.000000)" fill="#F0213B" fill-rule="nonzero">
            <path d="M10,16 C9.879,16 9.76,15.956001 9.66600001,15.871003 L4.80900001,11.5001046 L2.00000001,11.5001046 C1.19600001,11.5001046 0,10.967117 0,9.50015107 L0,6.50022081 C0,5.6962395 0.533000007,4.50026729 2.00000001,4.50026729 L4.80800001,4.50026729 L9.66500002,0.128368913 C9.81200001,-0.00462799405 10.023,-0.0366272436 10.203,0.0433708886 C10.385,0.124369009 10.5,0.303364856 10.5,0.500360279 L10.5,15.5000116 C10.5,15.697007 10.385,15.8770029 10.204,15.957001 C10.139,15.9860003 10.069,16 10,16 Z M2.00000001,5.50024405 C1.048,5.50024405 1,6.33322469 1,6.50022081 L1,9.50015107 C1,10.451129 1.83300001,10.5001278 2.00000001,10.5001278 L5,10.5001278 C5.124,10.5001278 5.243,10.5461268 5.334,10.6291248 L9.50000001,14.3770377 L9.50000001,1.62333418 L5.335,5.37124706 C5.243,5.45424513 5.124,5.50024405 5,5.50024405 L2.00000001,5.50024405 Z M12.5,5.00025568 C12.373,5.00025568 12.244,4.95125683 12.146,4.85425908 C11.951,4.65926361 11.951,4.34227098 12.146,4.1472755 L14.146,2.14732198 C14.341,1.95232652 14.658,1.95232652 14.853,2.14732198 C15.048,2.34231745 15.048,2.65931008 14.853,2.85430556 L12.853,4.85425908 C12.756,4.95125681 12.629,5.00025568 12.5,5.00025568 Z M15.5,8.50017433 L12.5,8.50017433 C12.225,8.50017433 12,8.27617953 12,8.00018595 C12,7.72419237 12.225,7.50019757 12.5,7.50019757 L15.5,7.50019757 C15.777,7.50019757 16,7.72419237 16,8.00018595 C16,8.27617953 15.777,8.50017433 15.5,8.50017433 Z M14.5,14.0000465 C14.373,14.0000465 14.244,13.9510476 14.146,13.8540499 L12.146,11.8540963 C11.951,11.6591009 11.951,11.3421083 12.146,11.1471128 C12.341,10.9521173 12.658,10.9521173 12.853,11.1471128 L14.853,13.1470663 C15.048,13.3420618 15.048,13.6590544 14.853,13.8540499 C14.756,13.9510476 14.629,14.0000465 14.5,14.0000465 Z" id="Shape"></path>
        </g>
    </g>
</svg>