<?xml version="1.0" encoding="UTF-8"?>
<svg width="16px" height="14px" viewBox="0 0 16 14" version="1.1" xmlns="http://www.w3.org/2000/svg" xmlns:xlink="http://www.w3.org/1999/xlink">
    <!-- Generator: Sketch 49.1 (51147) - http://www.bohemiancoding.com/sketch -->
    <title>文件-2</title>
    <desc>Created with Sketch.</desc>
    <defs></defs>
    <g id="Page-1" stroke="none" stroke-width="1" fill="none" fill-rule="evenodd">
        <g id="icon_wenjian1" transform="translate(-7.000000, -9.000000)" fill-rule="nonzero">
            <g id="文件-2" transform="translate(7.000000, 9.000000)">
                <path d="M1.47419725,13.4042247 C0.943820225,13.4042247 0.512339576,12.9670512 0.512339576,12.4297228 L0.512339576,1.48180774 C0.512339576,0.944459426 0.9438402,0.507305868 1.47419725,0.507305868 L5.5503221,0.507305868 C5.81129588,0.507305868 6.06449938,0.616808989 6.24497378,0.807750312 L7.18625718,1.80356554 C7.55473658,2.19323845 8.07244944,2.41667915 8.6067216,2.41667915 L14.5318352,2.41667915 C15.0621723,2.41667915 15.493613,2.85381273 15.493613,3.39114107 L15.493613,12.4297228 C15.493613,12.9670512 15.0621523,13.4042247 14.5318352,13.4042247 L1.47419725,13.4042247 Z" id="Shape" fill="#FFFFFF"></path>
                <path d="M5.5503221,1.00668165 C5.67458677,1.00668165 5.79549563,1.059196 5.88208739,1.1508015 L6.82349064,2.1467166 C7.28581273,2.63564544 7.93578027,2.91605493 8.60676155,2.91605493 L14.5318352,2.91605493 C14.7868165,2.91605493 14.9942572,3.12918851 14.9942572,3.39114107 L14.9942572,12.4297228 C14.9942572,12.6917154 14.7868165,12.9048489 14.5318352,12.9048489 L1.47419725,12.9048489 C1.21917603,12.9048489 1.01171536,12.6917154 1.01171536,12.4297228 L1.01171536,1.48180774 C1.01171536,1.21981523 1.21917603,1.00668165 1.47419725,1.00668165 L5.5503221,1.00668165 Z M5.5503221,0.00793008739 L1.47419725,0.00793008739 C0.667205993,0.00793008739 0.0129637953,0.667805243 0.0129637953,1.48180774 L0.0129637953,12.4297228 C0.0129637953,13.2437054 0.667205993,13.9036005 1.47419725,13.9036005 L14.5318352,13.9036005 C15.3387865,13.9036005 15.9930087,13.2436854 15.9930087,12.4297228 L15.9930087,3.39114107 C15.9930087,2.57715855 15.3388065,1.91730337 14.5318352,1.91730337 L8.60674157,1.91730337 C8.20710112,1.91730337 7.82497878,1.75218976 7.54918352,1.46051436 L6.60788015,0.464719101 C6.33216479,0.173003745 5.94996255,0.00793008739 5.5503221,0.00793008739 Z" id="Shape" fill="#1A1A1A"></path>
                <path d="M1.01193508,4.58321099 L12.1284994,4.58321099 C12.5122197,4.58321099 12.8232909,4.89426217 12.8232909,5.2780025 L12.8232909,8.05712859 C12.8232909,8.44082896 12.5122397,8.7519201 12.1284994,8.7519201 L1.01193508,8.7519201 L1.01193508,4.58321099 Z" id="Shape" fill="#FFCD36"></path>
            </g>
        </g>
    </g>
</svg>