<?xml version="1.0" encoding="UTF-8"?>
<svg width="23px" height="23px" viewBox="0 0 23 23" version="1.1" xmlns="http://www.w3.org/2000/svg" xmlns:xlink="http://www.w3.org/1999/xlink">
    <!-- Generator: Sketch 49.1 (51147) - http://www.bohemiancoding.com/sketch -->
    <title>结账默认</title>
    <desc>Created with Sketch.</desc>
    <defs></defs>
    <g id="Page-1" stroke="none" stroke-width="1" fill="none" fill-rule="evenodd">
        <g id="首页深蓝-copy" transform="translate(-29.000000, -467.000000)" fill="#FFFFFF" fill-rule="nonzero">
            <g id="结账默认" transform="translate(29.000000, 467.000000)">
                <path d="M22.3,9.65 L21.1,9.65 L21.1,7.25 C21.1,6.05 20.2,5.15 19.2,5.15 L5.2,5.15 L14.5,1.05 C14.8,0.95 15.1,0.95 15.4,1.05 C15.7,1.15 15.9,1.45 16,1.75 L16.5,3.45 C16.6,3.65 16.7,3.65 16.7,3.65 C16.7,3.65 16.8,3.65 16.8,3.65 L16.9,3.65 C17.3,3.45 17.5,3.35 17.5,3.35 L16.8,1.25 C16.6,0.75 16.3,0.35 15.9,0.15 C15.5,-0.05 15,-0.05 14.6,0.15 L2.3,5.15 L1.9,5.15 C0.9,5.15 0,6.15 0,7.25 L0,20.05 C0,21.25 0.9,22.15 1.9,22.15 L19.2,22.15 C20.2,22.15 21.1,21.15 21.1,20.05 L21.1,17.65 L22.4,17.65 C22.5,17.65 22.7,17.55 22.7,17.35 L22.7,9.85 C22.6,9.75 22.5,9.65 22.3,9.65 Z M20,19.85 C20,20.55 19.5,21.05 18.9,21.05 L2.3,21.05 C1.7,21.05 1.2,20.55 1.2,19.85 L1.2,7.55 C1.2,6.85 1.7,6.35 2.3,6.35 L18.8,6.35 C19.4,6.35 19.9,6.85 19.9,7.55 L19.9,9.65 L19.1,9.65 C17.1,9.65 15.5,11.45 15.5,13.75 C15.5,15.95 17.1,17.85 19.1,17.85 L20,17.85 L20,19.85 Z M21.4,16.75 L18.7,16.75 C18.6,16.75 18.6,16.75 18.5,16.75 C18.1,16.75 17.6,16.55 17.2,16.15 C16.6,15.55 16.2,14.65 16.2,13.75 C16.2,12.85 16.6,11.95 17.2,11.35 C17.7,10.95 18.2,10.75 18.7,10.75 L21.3,10.75 L21.3,16.75 L21.4,16.75 Z" id="Shape"></path>
                <path d="M11.9,10 L11.8,10 C11.8,10 11.8,10 11.8,10 L9.8,14.1 L7.8,10 C7.7,10 7.7,10 7.6,10 C7.5,10 7.4,10 7.3,10 C7.2,10 7.1,10 7,10 L9.1,14 L7.3,14 C7.3,14.1 7.3,14.1 7.3,14.2 C7.3,14.2 7.3,14.3 7.3,14.4 L9.4,14.4 L9.4,16 L7.3,16 C7.3,16.1 7.3,16.1 7.3,16.2 C7.3,16.3 7.3,16.3 7.3,16.4 L9.4,16.4 L9.4,18.4 L9.5,18.4 C9.6,18.4 9.7,18.4 9.8,18.4 C9.9,18.4 10,18.4 10.1,18.4 L10.2,18.4 L10.2,16.4 L12.4,16.4 C12.4,16.3 12.4,16.3 12.4,16.2 C12.4,16.1 12.4,16.1 12.4,16.1 L10.2,16.1 L10.2,14.5 L12.4,14.5 C12.4,14.4 12.4,14.4 12.4,14.3 C12.4,14.2 12.4,14.2 12.4,14.2 L10.3,14.2 L12.3,10.1 C12.2,10.1 12.1,10.1 12.1,10.1 C12.1,10 12,10 11.9,10 Z" id="Shape"></path>
                <path d="M19.1,14 C19.1,14 19.1,14 19.1,14 C18.7,14 18.4,14.1 18.2,14.3 C18.1,14.4 18,14.5 18,14.6 C18,14.9 18.5,15.2 19.1,15.2 C19.7,15.2 20.2,14.9 20.2,14.6 C20.2,14.3 19.7,14 19.1,14 Z" id="Shape"></path>
            </g>
        </g>
    </g>
</svg>