<?xml version="1.0" encoding="UTF-8"?>
<svg width="110px" height="110px" viewBox="0 0 110 110" version="1.1" xmlns="http://www.w3.org/2000/svg" xmlns:xlink="http://www.w3.org/1999/xlink">
    <!-- Generator: Sketch 49.1 (51147) - http://www.bohemiancoding.com/sketch -->
    <title>icon_yijianfankui copy 3</title>
    <desc>Created with Sketch.</desc>
    <defs></defs>
    <g id="icon_yijianfankui-copy-3" stroke="none" stroke-width="1" fill="none" fill-rule="evenodd">
        <g id="07" transform="translate(20.000000, 20.000000)">
            <path d="M68.5387193,28.5101463 C67.7307857,28.5101463 67.0788972,29.1635068 67.0788972,29.9699988 L67.0788972,58.4757698 C67.0788972,63.2184674 63.2200668,67.0759199 58.477468,67.0759199 L11.5225317,67.0759199 C6.77993291,67.0759199 2.92110253,63.2170091 2.92110253,58.4757698 L2.92110253,11.5198551 C2.92110253,6.77861582 6.77993291,2.91970503 11.5225317,2.91970503 L40.0277087,2.91970503 C40.8385589,2.91970503 41.4904475,2.2663445 41.4904475,1.45985252 C41.4904475,0.653360602 40.8385589,0 40.0277087,0 L11.5225317,6.83622236e-08 C5.16844096,6.83622236e-08 0,5.16854873 0,11.5213134 L0,58.4786866 C0,64.8299929 5.16844096,70 11.5225317,70 L58.4803848,70 C64.8315587,70 70.001458,64.8299929 69.9999997,58.4786866 L69.9999997,29.9699988 C69.9999997,29.1635068 69.3466527,28.5101463 68.5387193,28.5101463 Z" id="Shape" stroke="#F8F8F8" stroke-width="1.2" fill="#999999" fill-rule="nonzero"></path>
            <polygon id="Path-7" fill-opacity="0.3" fill="#7C68F4" points="58.254913 9 35 31.536034 41.1739019 37.2330325 62.9722627 13.9898659"></polygon>
            <path d="M10.2780593,49.5590069 C3.41241097,47.8112265 12.0656058,45.6781618 36.2376439,43.159813 C71.4955983,41.1262066 -1.42839333,59.2822129 61.269115,53.3368371 C69.4651549,52.6517813 51.6361416,60.5694356 34.2952479,57.9519543 C16.9549966,55.3852169 41.546474,49.404513 27.0594378,49.3088064 C17.4014136,49.2450019 11.8076208,49.3284021 10.2780593,49.5590069 Z" id="Path-4" fill-opacity="0.3" fill="#7C68F4"></path>
            <path d="M30.2216595,30.989127 C30.1879299,31.0361076 30.1409494,31.0698373 30.1132429,31.122841 L22.1373933,46.3590112 C21.8928536,46.8276126 21.9807916,47.3949937 22.353022,47.7720432 C22.5855154,48.0033323 22.8951051,48.125 23.207104,48.125 C23.3974354,48.125 23.5901761,48.0804287 23.7672566,47.9888767 L39.0046106,40.0166301 C39.0708652,39.9816958 39.1154365,39.9250782 39.172054,39.8805068 C39.2118068,39.8503911 39.259992,39.8335262 39.2961308,39.7973873 L65.9352997,13.1593867 C65.9505584,13.1473404 66.8231114,12.2747862 68.5529589,10.541724 C69.5660521,9.52862955 70.125,8.1806477 70.125,6.74954632 C70.125,5.31724034 69.5660521,3.9704631 68.5505497,2.95736862 L67.1688401,1.57204323 C66.1569516,0.557744036 64.807767,0 63.3766675,0 C61.9455681,0 60.5963835,0.557744036 59.584495,1.57204318 L30.3288715,30.8289111 C30.281891,30.8746871 30.2590031,30.9373279 30.2216595,30.989127 Z M31.4243485,33.0020765 L37.2705914,38.8916419 L24.796262,45.4667221 L31.4243485,33.0020765 Z M61.0587173,2.41665157 C62.3653091,1.1055166 64.6384402,1.1055166 65.9450319,2.41665157 L67.5648672,4.043535 C68.216752,4.69910246 68.5779696,5.56988863 68.5779696,6.49589539 C68.5779696,7.42190214 68.6044849,8.43034129 67.9526,9.08449285 L64.5229876,12.2317445 L58.0707395,5.49101951 L61.0587173,2.41665157 Z M57.1115499,6.26770805 L63.7212667,13.1338717 L38.939173,37.9169441 L32.3282596,31.0507804 L57.1115499,6.26770805 Z" id="Shape" fill="#7C68F4" fill-rule="nonzero"></path>
            <path d="" id="Path-2" stroke="#979797"></path>
            <path d="" id="Path-3" stroke="#979797"></path>
        </g>
    </g>
</svg>