<?xml version="1.0" encoding="UTF-8"?>
<svg width="110px" height="110px" viewBox="0 0 110 110" version="1.1" xmlns="http://www.w3.org/2000/svg" xmlns:xlink="http://www.w3.org/1999/xlink">
    <!-- Generator: Sketch 49.1 (51147) - http://www.bohemiancoding.com/sketch -->
    <title>icon_cunhuo  copy 4</title>
    <desc>Created with Sketch.</desc>
    <defs></defs>
    <g id="icon_cunhuo--copy-4" stroke="none" stroke-width="1" fill="none" fill-rule="evenodd">
        <g id="店铺存货" transform="translate(18.000000, 20.000000)" fill-rule="nonzero">
            <path d="M43.1639913,23.3375271 C43.1639913,22.7925964 42.9475184,22.2699846 42.5621942,21.8846604 C42.17687,21.4993362 41.6542583,21.2828633 41.1093275,21.2828633 L32.8906725,21.2828633 C31.755913,21.2828633 30.8360087,22.2027676 30.8360087,23.3375271 C30.8360087,24.4722866 31.755913,25.3921909 32.8906725,25.3921909 L41.1093275,25.3921909 C41.6542583,25.3921909 42.17687,25.175718 42.5621942,24.7903938 C42.9475184,24.4050696 43.1639913,23.8824578 43.1639913,23.3375271 Z M28.7813449,45.9388286 L20.5626898,45.9388286 C19.4279303,45.9388286 18.508026,46.8587329 18.508026,47.9934924 C18.508026,49.1282519 19.4279303,50.0481562 20.5626898,50.0481562 L28.7813449,50.0481562 C29.9161044,50.0481562 30.8360087,49.1282519 30.8360087,47.9934924 C30.8360087,46.8587329 29.9161044,45.9388286 28.7813449,45.9388286 Z M43.1639913,47.9934924 C43.1639913,49.1282519 44.0838956,50.0481562 45.2186551,50.0481562 L53.4373102,50.0481562 C54.5720697,50.0481562 55.491974,49.1282519 55.491974,47.9934924 C55.491974,46.8587329 54.5720697,45.9388286 53.4373102,45.9388286 L45.2186551,45.9388286 C44.0838956,45.9388286 43.1639913,46.8587329 43.1639913,47.9934924 Z" id="Shape" fill="#A89AFB"></path>
            <path d="M43.1639913,10.3375271 C43.1639913,9.7925964 42.9475184,9.26998463 42.5621942,8.88466043 C42.17687,8.49933622 41.6542583,8.28286334 41.1093275,8.28286334 L32.8906725,8.28286334 C31.755913,8.28286334 30.8360087,9.20276765 30.8360087,10.3375271 C30.8360087,11.4722866 31.755913,12.3921909 32.8906725,12.3921909 L41.1093275,12.3921909 C41.6542583,12.3921909 42.17687,12.175718 42.5621942,11.7903938 C42.9475184,11.4050696 43.1639913,10.8824578 43.1639913,10.3375271 Z M28.7813449,32.9388286 L20.5626898,32.9388286 C19.4279303,32.9388286 18.508026,33.8587329 18.508026,34.9934924 C18.508026,36.1282519 19.4279303,37.0481562 20.5626898,37.0481562 L28.7813449,37.0481562 C29.9161044,37.0481562 30.8360087,36.1282519 30.8360087,34.9934924 C30.8360087,33.8587329 29.9161044,32.9388286 28.7813449,32.9388286 Z M43.1639913,34.9934924 C43.1639913,36.1282519 44.0838956,37.0481562 45.2186551,37.0481562 L53.4373102,37.0481562 C54.5720697,37.0481562 55.491974,36.1282519 55.491974,34.9934924 C55.491974,33.8587329 54.5720697,32.9388286 53.4373102,32.9388286 L45.2186551,32.9388286 C44.0838956,32.9388286 43.1639913,33.8587329 43.1639913,34.9934924 Z" id="Shape" stroke="#8978F3"></path>
            <path d="M71.9292842,49.3761388 L63.7106291,49.3761388 L63.7106291,26.7748373 C63.7106291,25.6400778 62.7907248,24.7201735 61.6559653,24.7201735 L51.3826464,24.7201735 L51.3826464,2.11887202 C51.3826464,0.984112549 50.4627421,0.064208243 49.3279826,0.064208243 L24.6720174,0.064208243 C23.5372579,0.064208243 22.6173536,0.984112549 22.6173536,2.11887202 L22.6173536,24.7201735 L12.3440347,24.7201735 C11.2092752,24.7201735 10.2893709,25.6400778 10.2893709,26.7748373 L10.2893709,49.3761388 L2.07071584,49.3761388 C1.52578512,49.3761388 1.00317335,49.5926117 0.617849147,49.9779359 C0.232524944,50.3632601 0.0160520607,50.8858719 0.0160520607,51.4308026 L0.0160520607,59.6494577 C0.0160520607,60.7842172 0.935956367,61.7041215 2.07071584,61.7041215 L10.2893709,61.7041215 C10.289371,66.2431593 13.9689882,69.9227765 18.508026,69.9227765 C23.0470639,69.9227765 26.7266811,66.2431593 26.7266811,61.7041215 L47.2733189,61.7041215 C47.2733189,66.2431593 50.9529361,69.9227766 55.491974,69.9227766 C60.0310118,69.9227766 63.7106291,66.2431593 63.7106291,61.7041215 L71.9292842,61.7041215 C73.0640436,61.7041215 73.9839479,60.7842172 73.9839479,59.6494577 L73.9839479,51.4308026 C73.9839479,50.2960431 73.0640436,49.3761388 71.9292842,49.3761388 Z M59.6013015,49.3761388 L39.0546638,49.3761388 L39.0546638,28.8295011 L59.6013015,28.8295011 L59.6013015,49.3761388 Z M26.7266811,4.17353579 L47.2733189,4.17353579 L47.2733189,24.7201735 L26.7266811,24.7201735 L26.7266811,4.17353579 Z M14.3986985,28.8295011 L34.9453362,28.8295011 L34.9453362,49.3761388 L14.3986985,49.3761388 L14.3986985,28.8295011 Z M18.508026,65.813449 C16.239446,65.8111838 14.4009637,63.9727015 14.3986985,61.7041215 L22.6173536,61.7041215 C22.6150884,63.9727015 20.776606,65.8111838 18.508026,65.813449 Z M55.491974,65.813449 C53.223394,65.8111838 51.3849116,63.9727015 51.3826464,61.7041215 L59.6013015,61.7041215 C59.5990363,63.9727015 57.760554,65.8111838 55.491974,65.813449 Z M69.8746204,57.5947939 L4.12537961,57.5947939 L4.12537961,53.4854664 L69.8746204,53.4854664 L69.8746204,57.5947939 Z" id="Shape" stroke="#FFFFFF" stroke-width="2.4" fill="#999999"></path>
        </g>
    </g>
</svg>