<?xml version="1.0" encoding="UTF-8"?>
<svg width="110px" height="110px" viewBox="0 0 110 110" version="1.1" xmlns="http://www.w3.org/2000/svg" xmlns:xlink="http://www.w3.org/1999/xlink">
    <!-- Generator: Sketch 49.1 (51147) - http://www.bohemiancoding.com/sketch -->
    <title>icon_zichanfuzhaibiao copy 4</title>
    <desc>Created with Sketch.</desc>
    <defs></defs>
    <g id="icon_zichanfuzhaibiao-copy-4" stroke="none" stroke-width="1" fill="none" fill-rule="evenodd">
        <g id="04" transform="translate(15.000000, 18.000000)">
            <polygon id="Shape" fill-opacity="0.3" fill="#ED8D2E" fill-rule="nonzero" points="1 24 77 24 77 51 1 51"></polygon>
            <path d="M74.9567041,54 L6.04337039,54 C2.7006209,54 7.44550605e-05,51.2777269 7.44550605e-05,47.9450047 L7.44550605e-05,6.07149407 C-0.016392226,2.72227312 2.7006209,0 6.04337039,0 L74.9567041,0 C78.2994536,0 81,2.72227312 81,6.05499543 L81,47.928506 C81,51.2777269 78.2829869,54.0000001 74.9567041,54 Z M6.04337039,3.34922087 C4.54489646,3.34922087 3.32635726,4.57011909 3.32635726,6.07149407 L3.32635726,47.9450047 C3.32635726,49.4463795 4.54489646,50.6672778 6.04337039,50.6672778 L74.9567041,50.6672778 C76.455178,50.6672778 77.6737172,49.4463795 77.6737172,47.9450047 L77.6737172,6.07149407 C77.6737172,4.57011918 76.455178,3.34922095 74.9567041,3.34922087 L6.04337039,3.34922087 Z" id="Shape" stroke="#F8F8F8" stroke-width="2" fill="#999999" fill-rule="nonzero"></path>
            <path d="M50.1366714,37 C49.7913904,37 49.4461094,36.8995513 49.1501542,36.7153955 L29.271834,23.9249341 L16.0853884,35.9452892 C15.3290586,36.6316882 14.16168,36.5814639 13.471118,35.7946162 C12.796998,35.0245099 12.8463238,33.8358676 13.6190955,33.132727 L27.8413842,20.1581098 C28.4497364,19.5889008 29.3704858,19.521935 30.0610477,19.9739539 L50.0051357,32.7978982 L68.0090734,18.4002584 C68.8147291,17.7640836 69.9656657,17.8980151 70.6069018,18.7183458 C71.231696,19.5386765 71.1001604,20.7105774 70.2945048,21.3634935 L51.2711661,36.5982054 C50.942327,36.8660685 50.5312782,37 50.1366714,37 Z" id="Shape" stroke="#F8F8F8" fill="#ED8D2E" fill-rule="nonzero"></path>
            <path d="M40.048097,59.9295027 L26.7071068,73.2704929 C26.3165825,73.6610172 25.6834175,73.6610172 25.2928932,73.2704929 C24.9023689,72.8799686 24.9023689,72.2468037 25.2928932,71.8562794 L38.9954896,58.153683 L39.0274368,52.0263672 L40.951387,52 L40.956253,57.9565278 C40.9772086,57.9917627 40.9958106,58.0280083 41.0120591,58.0650376 L54.8033009,71.8562794 C55.1938252,72.2468037 55.1938252,72.8799686 54.8033009,73.2704929 C54.4127766,73.6610172 53.7796116,73.6610172 53.3890873,73.2704929 L40.048097,59.9295027 Z" id="Combined-Shape" fill="#999999"></path>
        </g>
    </g>
</svg>