<?xml version="1.0" encoding="UTF-8"?>
<svg width="110px" height="110px" viewBox="0 0 110 110" version="1.1" xmlns="http://www.w3.org/2000/svg" xmlns:xlink="http://www.w3.org/1999/xlink">
    <!-- Generator: Sketch 49.1 (51147) - http://www.bohemiancoding.com/sketch -->
    <title>icon_qitashouzhi copy 3</title>
    <desc>Created with Sketch.</desc>
    <defs></defs>
    <g id="icon_qitashouzhi-copy-3" stroke="none" stroke-width="1" fill="none" fill-rule="evenodd">
        <g id="收支" transform="translate(13.000000, 17.000000)">
            <path d="M82.5348865,49.7617154 L63.5651368,49.7617154 L69.1673949,43.8356897 C69.720315,43.250832 69.7047454,42.3194511 69.1322635,41.7553528 C68.8603259,41.484382 68.490167,41.335209 68.1063305,41.3419047 C67.722494,41.3486004 67.3577631,41.5105929 67.0954417,41.7908834 L59.1349895,50.2108382 C59.0759049,50.273915 59.0467618,50.3525614 59.0012507,50.4228242 C58.9453598,50.5066604 58.8794885,50.5809154 58.8415626,50.676329 C58.7696504,50.8532397 58.7322498,51.0422754 58.7313778,51.2332413 C58.7313778,51.422871 58.7705014,51.6113029 58.8415626,51.7901536 C58.8818838,51.8899587 58.9505497,51.9694035 59.0104327,52.0564335 C59.054347,52.1227041 59.0798971,52.1973583 59.1361871,52.2568421 L67.0958409,60.6767969 C67.3583372,60.9567351 67.7229598,61.1185127 68.1066574,61.1252812 C68.4903551,61.1320497 68.8604566,60.9832327 69.1326628,60.7127267 C69.7047278,60.1427574 69.720288,59.22135 69.1677942,58.6323899 L63.5655361,52.7051665 L82.5352858,52.7051665 C83.3301333,52.7051665 83.9752733,52.046453 83.9752733,51.2336405 C83.9748741,50.4208281 83.3297341,49.7617154 82.5348865,49.7617154 Z" id="Shape" fill="#F5B574" fill-rule="nonzero"></path>
            <path d="M78.5348865,47.7617154 L59.5651368,47.7617154 L65.1673949,41.8356897 C65.720315,41.250832 65.7047454,40.3194511 65.1322635,39.7553528 C64.8603259,39.484382 64.490167,39.335209 64.1063305,39.3419047 C63.722494,39.3486004 63.3577631,39.5105929 63.0954417,39.7908834 L55.1349895,48.2108382 C55.0759049,48.273915 55.0467618,48.3525614 55.0012507,48.4228242 C54.9453598,48.5066604 54.8794885,48.5809154 54.8415626,48.676329 C54.7696504,48.8532397 54.7322498,49.0422754 54.7313778,49.2332413 C54.7313778,49.422871 54.7705014,49.6113029 54.8415626,49.7901536 C54.8818838,49.8899587 54.9505497,49.9694035 55.0104327,50.0564335 C55.054347,50.1227041 55.0798971,50.1973583 55.1361871,50.2568421 L63.0958409,58.6767969 C63.3583372,58.9567351 63.7229598,59.1185127 64.1066574,59.1252812 C64.4903551,59.1320497 64.8604566,58.9832327 65.1326628,58.7127267 C65.7047278,58.1427574 65.720288,57.22135 65.1677942,56.6323899 L59.5655361,50.7051665 L78.5352858,50.7051665 C79.3301333,50.7051665 79.9752733,50.046453 79.9752733,49.2336405 C79.9748741,48.4208281 79.3297341,47.7617154 78.5348865,47.7617154 Z" id="Shape" stroke="#FFFFFF" stroke-width="1.8" fill="#F79A3D" fill-rule="nonzero"></path>
            <path d="M48.9470752,38.5588897 C49.8177747,38.5588897 50.5247938,37.8367002 50.5247938,36.9452413 C50.5247938,36.052984 49.8177747,35.3295969 48.9470752,35.3295969 L38.9545918,35.3295969 L38.9545918,33.3837973 C39.0312421,33.2468647 39.0863345,33.1103314 39.1218651,32.9614222 L48.3877676,23.0743329 C49.003443,22.437804 49.003443,21.4277211 48.3877676,20.7911922 C48.095213,20.4889668 47.6925756,20.3183412 47.271947,20.3183412 C46.8513184,20.3183412 46.4486809,20.4889668 46.1561263,20.7911922 L37.3772725,30.2491197 L28.5964226,20.7919906 C28.3038814,20.4898908 27.9013306,20.3193458 27.4808016,20.3193458 C27.0602726,20.3193458 26.6577217,20.4898908 26.3651805,20.7919906 C25.7490883,21.4283509 25.7490883,22.4387712 26.3651805,23.0751314 L35.6322807,32.9622207 C35.6674121,33.1107306 35.7221053,33.2480624 35.7987556,33.3833981 L35.7987556,35.3295969 L25.8066713,35.3295969 C24.9355727,35.3295969 24.229352,36.052984 24.229352,36.9444429 C24.229352,37.8367002 24.9359719,38.5588897 25.8066713,38.5588897 L35.799554,38.5588897 L35.799554,42.2680452 L25.8066713,42.2680452 C24.9355727,42.2680452 24.229352,42.9902347 24.229352,43.8816936 C24.229352,44.7747493 24.9359719,45.4961404 25.8066713,45.4961404 L35.799554,45.4961404 L35.799554,52.3767018 C35.799554,53.2693583 36.5061739,53.9903501 37.3768733,53.9903501 C38.2479719,53.9903501 38.954991,53.2693583 38.954991,52.3767018 L38.954991,45.4961404 L48.9474745,45.4961404 C49.8181739,45.4961404 50.525193,44.7747493 50.525193,43.8816936 C50.525193,42.9906339 49.8181739,42.2680452 48.9474745,42.2680452 L38.954991,42.2680452 L38.954991,38.5580912 L48.9474745,38.5580912 L48.9474745,38.5588897 L48.9470752,38.5588897 Z" id="Path" stroke="#FFFFFF" stroke-width="1.6" fill="#999999"></path>
            <path d="M36.9548975,70.8617981 C18.3668023,70.8617981 3.24553606,55.7061988 3.24553606,37.0761856 C3.24553606,18.4461723 18.3687984,3.288577 36.9548975,3.288577 C54.8327797,3.288577 69.4977372,17.3139836 70.5912016,34.961915 L73.8077193,34.961915 C73.5760613,30.7325318 72.6158009,26.5749148 70.9692632,22.6723181 C69.111292,18.2649263 66.4496904,14.3086534 63.0607096,10.9100912 C59.6685349,7.51472281 55.7226417,4.84673372 51.3256296,2.98397193 C46.7725224,1.05414113 41.9387634,0.0748538012 36.9548975,0.0748538012 C31.9714308,0.0748538012 27.1368733,1.05414113 22.5857622,2.98357271 C18.1863548,4.8463345 14.2384655,7.51432359 10.8478877,10.909692 C7.46010448,14.3102503 4.80009981,18.2649263 2.93933411,22.6719189 C1.01629006,27.2358051 0.0378011696,32.0807423 0.0378011696,37.0761856 C0.0378011696,42.0708304 1.01629006,46.9157676 2.93973333,51.4772585 C4.79124912,55.8720024 7.47695162,59.8662561 10.8482869,63.2390862 C14.24126,66.6380476 18.186754,69.3036413 22.5857622,71.1656047 C27.1372725,73.0966331 31.9714308,74.0767189 36.9552967,74.0767189 C41.9391626,74.0767189 46.7729216,73.0966331 51.3264281,71.1656047 C55.605271,69.3531446 59.4545528,66.7737825 62.7832515,63.5053661 L57.917954,63.5053661 C52.1580039,68.1039844 44.87423,70.8617981 36.9548975,70.8617981 Z" id="Shape" stroke="#FFFFFF" stroke-width="1.6" fill="#999999" fill-rule="nonzero"></path>
        </g>
    </g>
</svg>