<?xml version="1.0" encoding="UTF-8"?>
<svg width="24px" height="24px" viewBox="0 0 24 24" version="1.1" xmlns="http://www.w3.org/2000/svg" xmlns:xlink="http://www.w3.org/1999/xlink">
    <!-- Generator: Sketch 49.1 (51147) - http://www.bohemiancoding.com/sketch -->
    <title>icon_shangyi copy 3</title>
    <desc>Created with Sketch.</desc>
    <defs></defs>
    <g id="icon_shangyi-copy-3" stroke="none" stroke-width="1" fill="none" fill-rule="evenodd">
        <g id="上移" transform="translate(3.000000, 2.000000)" fill="#F79A3D" fill-rule="nonzero">
            <path d="M0,18.02 L18,18.02 L18,19.2125 L0,19.2125 L0,18.02 Z M0.25,1.7225 L7,1.7225 L7,2.915 L0.25,2.915 L0.25,1.7225 Z M0.25,7.685 L7,7.685 L7,8.8775 L0.25,8.8775 L0.25,7.685 Z M0.25,13.6475 L7,13.6475 L7,14.84 L0.25,14.84 L0.25,13.6475 Z M12.6125,0.636 L8,5.52525 L8.7875,6.36 L12.5,2.544 L12.5,15.9 L13.625,15.9 L13.625,2.544 L17.225,6.36 L18.0125,5.52525 L13.4,0.636 C13.175,0.3975 12.8375,0.3975 12.6125,0.636 Z" id="Shape"></path>
        </g>
    </g>
</svg>