<?xml version="1.0" encoding="UTF-8"?>
<svg width="20px" height="20px" viewBox="0 0 20 20" version="1.1" xmlns="http://www.w3.org/2000/svg" xmlns:xlink="http://www.w3.org/1999/xlink">
    <!-- Generator: Sketch 49.1 (51147) - http://www.bohemiancoding.com/sketch -->
    <title>shezhi000ch</title>
    <desc>Created with Sketch.</desc>
    <defs></defs>
    <g id="Page-1" stroke="none" stroke-width="1" fill="none" fill-rule="evenodd">
        <g id="shezhi000ch" fill="#F79A3D" fill-rule="nonzero">
            <path d="M19.7357367,7.77109854 C19.6881923,7.39063877 19.4504075,7.05774431 19.0224033,6.96263459 L18.974838,6.96263459 C18.1188297,6.77241516 17.5006061,6.29686657 17.0250575,5.48840262 C16.5970533,4.77506929 16.4543783,3.87149562 16.7397074,3.06305257 C16.8823824,2.73013721 16.7872727,2.30213303 16.4543783,2.01682477 C15.5508046,1.16081641 14.4570324,0.495027489 13.2205643,0.0670233096 C12.8876698,-0.0756517166 12.5072309,0.0194580013 12.1743365,0.352352463 C11.6512226,1.01814139 10.8427586,1.35103585 9.93920585,1.35103585 C9.1307419,1.35103585 8.36986416,0.970576079 7.70407524,0.304808054 C7.32361546,-0.0756517166 6.94315569,-0.028107307 6.65784744,0.0670233096 C5.42137931,0.590116309 4.37515152,1.20836082 3.47157785,1.96925946 C3.13868339,2.20704421 2.99602926,2.63504839 3.13868339,3.01548726 C3.37646813,3.91906093 3.28135841,4.77506929 2.85335423,5.53596793 C2.47291536,6.20173595 1.75956113,6.72487075 0.903552769,6.96263459 C0.856008359,6.96263459 0.856008359,6.96263459 0.80846395,7.0101999 C0.523113898,7.15287493 0.332894462,7.39063877 0.190219436,7.72353324 L0.190219436,7.77109854 C0.0475444096,8.48443188 0,9.10265549 0,9.72090001 C0,10.3391236 0.0475444096,11.052457 0.190219436,11.6231362 C0.237784744,12.003575 0.475548589,12.3364695 0.903552769,12.4315792 L0.951118077,12.4315792 C1.80712644,12.6217986 2.42535005,13.0973681 2.90091954,13.9058112 C3.32892372,14.6191654 3.47157785,15.5227391 3.18624869,16.3311821 C3.04357367,16.6640766 3.13868339,17.0920808 3.47157785,17.3774099 C4.37515152,18.2334183 5.46894462,18.8992072 6.75295716,19.3272114 C6.80050157,19.3272114 6.84804598,19.3747558 6.94317659,19.3747558 L7.08585162,19.3747558 C7.32361546,19.3747558 7.60894462,19.279667 7.84672936,19.0418613 C8.36986416,18.4236377 9.17830721,18.0431989 10.0818809,18.0431989 C10.8903239,18.0431989 11.6512226,18.4236377 12.3169906,19.0894267 C12.5072309,19.2796461 12.7449948,19.4223211 12.9827795,19.4223211 C13.0779101,19.4223211 13.2205643,19.4223211 13.3156949,19.3747558 C14.5521421,18.8516628 15.5983699,18.2334183 16.5019436,17.4725197 C16.8348171,17.2823002 16.9774922,16.8067307 16.8348171,16.4262919 C16.5970533,15.5227182 16.692163,14.6667098 17.1201672,13.9058112 C17.5006061,13.2400432 18.2139603,12.7169293 19.0699687,12.4791445 C19.1175131,12.4791445 19.1175131,12.4791445 19.1650575,12.4315792 C19.4504075,12.2889251 19.640627,12.0511403 19.783302,11.7182459 L19.783302,11.6706806 C19.925977,10.9573472 19.9735214,10.3391236 19.9735214,9.72090001 C19.925977,9.05511108 19.8784117,8.38932216 19.7357367,7.77109854 Z M9.93922675,13.0022375 C8.08453501,13.0022375 6.61030303,11.5280264 6.61030303,9.6733347 C6.61030303,7.81864295 8.08453501,6.34441098 9.93922675,6.34441098 C11.7939185,6.34441098 13.2681296,7.81864295 13.2681296,9.6733347 C13.2681296,11.5280264 11.7938976,13.0022584 9.93918495,13.0022584 L9.93922675,13.0022375 Z" id="Shape"></path>
        </g>
    </g>
</svg>