<?xml version="1.0" encoding="UTF-8"?>
<svg width="24px" height="24px" viewBox="0 0 24 24" version="1.1" xmlns="http://www.w3.org/2000/svg" xmlns:xlink="http://www.w3.org/1999/xlink">
    <!-- Generator: Sketch 49.1 (51147) - http://www.bohemiancoding.com/sketch -->
    <title>icon_xiazai copy 2</title>
    <desc>Created with Sketch.</desc>
    <defs></defs>
    <g id="icon_xiazai-copy-2" stroke="none" stroke-width="1" fill="none" fill-rule="evenodd">
        <g id="下载" transform="translate(2.000000, 2.000000)" fill="#F79292" fill-rule="nonzero">
            <polygon id="Shape" points="10.0035677 12.3907157 13.1079578 9.28632562 14.0536732 10.2320388 10.1829917 14.1027203 10.0036635 14.2820485 10.0035677 14.2819527 10.0034719 14.2820485 5.95346451 10.2320388 6.89917993 9.28632562"></polygon>
            <polygon id="Shape" points="9.28632563 0.00855433036 10.7136744 0.00855433036 10.7136744 12.8546998 9.28632563 12.8546998 9.28632563 0.00855433036"></polygon>
            <path d="M1.43590371,9.28632531 L1.43590371,17.8508337 C1.43590371,18.2444939 1.75508612,18.5640963 2.14707373,18.5640963 L17.8529263,18.5640963 C18.2418694,18.5640963 18.5640963,18.2422163 18.5640963,17.8508337 L18.5640963,9.28632531 L19.277771,9.28632531 L19.9914457,9.28632531 L19.9914457,17.8508337 C19.9914457,19.0330611 19.0276293,19.9914457 17.8529263,19.9914457 L2.14707373,19.9914457 C0.966002076,19.9914457 0.00855433036,19.0320166 0.00855433036,17.8508337 L0.00855433036,9.28632531 L0.722229018,9.28632531 L1.43590371,9.28632531 Z" id="Shape"></path>
        </g>
    </g>
</svg>