<?xml version="1.0" encoding="UTF-8"?>
<svg width="110px" height="110px" viewBox="0 0 110 110" version="1.1" xmlns="http://www.w3.org/2000/svg" xmlns:xlink="http://www.w3.org/1999/xlink">
    <!-- Generator: Sketch 49.1 (51147) - http://www.bohemiancoding.com/sketch -->
    <title>icon_zhiyuan</title>
    <desc>Created with Sketch.</desc>
    <defs></defs>
    <g id="icon_zhiyuan" stroke="none" stroke-width="1" fill="none" fill-rule="evenodd">
        <g id="职员" transform="translate(24.000000, 24.000000)">
            <g id="Group">
                <path d="M0.018060353,35.8312244 C1.12851406,33.7259032 2.89533259,32.9745925 5.21944202,33.1108192 C7.1678961,33.2140212 9.12460635,33.1108192 11.0771885,33.1355877 C13.9379484,33.1768685 15.4446979,34.6918741 15.452954,37.5154813 C15.4612102,39.4185265 15.349752,41.3256998 15.4777225,43.2204888 C15.6758704,46.0895049 14.8750227,48.1989541 11.6757602,48.7933977 C11.6757602,50.8739504 11.5890705,52.8760695 11.7005287,54.8699325 C11.8326273,57.2311946 11.1349816,59.0805748 8.97599545,60.2281812 L6.50327511,60.2281812 C4.34841699,59.088831 3.63013095,57.2559631 3.77874186,54.9029571 C3.86474415,53.2169707 3.86198829,51.5276271 3.7704857,49.8419302 C3.75810146,49.420866 3.46913581,48.7190923 3.1925544,48.6612991 C1.6321399,48.3351808 0.806523764,47.220599 0.0139322723,46.0234556 L0.018060353,35.8312244 Z" id="Path" fill="#999999"></path>
                <path d="M30.0610683,60.4763673 C27.9640033,59.3617855 27.2168207,57.594967 27.3365351,55.2708575 C27.4479932,53.2233295 27.3654316,51.1716734 27.3654316,49.1695543 C23.8895877,47.6958295 23.5841097,47.2211002 23.5841097,43.4604187 C23.5841097,41.4995804 23.5717255,39.5511263 23.5841097,37.594416 C23.596494,35.1010553 25.0413222,33.4911038 27.5140425,33.400286 C30.0328021,33.313598 32.5537987,33.313598 35.0725583,33.400286 C37.5576628,33.4869757 38.998363,35.0927991 39.0107472,37.5902879 C39.0231315,40.0052151 39.0231315,42.4201423 39.0107472,44.8433257 C38.998363,46.8743414 38.1644907,48.1086375 36.183012,48.7237216 C35.3367554,48.9879187 35.2087849,49.4296234 35.2252973,50.176806 C35.26245,51.869319 35.1468637,53.5783444 35.2500657,55.2667294 C35.3986766,57.5908389 34.6225975,59.3535293 32.5337886,60.4722392 L30.0610683,60.4763673 Z" id="Path" fill="#999999"></path>
                <path d="M52.8285966,60.2240531 C50.7315316,59.1094714 49.9802209,57.3467809 50.0999353,55.0226715 C50.2113934,52.9792715 50.1288318,50.9234874 50.1288318,48.7892696 C46.9254412,48.194826 46.1245936,46.0895049 46.3227414,43.2163607 C46.45484,41.2679066 46.3392537,39.3111964 46.3475099,37.3627423 C46.3640222,34.8569973 47.7882101,33.2429178 50.2609304,33.1479719 C52.7749315,33.0612822 55.2971888,33.1108192 57.81119,33.1355877 C59.7142352,33.1521 60.8948663,34.279066 61.7824036,35.8229682 L61.7824036,46.0151994 C60.8659697,46.8366875 60.060994,47.8645796 59.0042053,48.4177424 C58.21987,48.8264224 57.968057,49.1731811 57.9845694,49.982285 C58.0299783,51.6170049 57.9102639,53.2641091 58.0217221,54.8905729 C58.1744611,57.2435789 57.4437908,59.0723186 55.2971888,60.215797 C54.4674446,60.2240531 53.6500846,60.2240531 52.8285966,60.2240531 Z" id="Path" fill="#999999"></path>
                <path d="M0.830681532,36.3565228 C1.82433899,34.4726369 3.40532558,33.8003482 5.48498785,33.9222467 C7.22850577,34.014594 8.97941147,33.9222467 10.7266233,33.94441 C13.2864918,33.981349 14.634763,35.337008 14.6421508,37.8636315 C14.6495386,39.5665166 14.5498035,41.2730955 14.6643142,42.9685928 C14.8416211,45.5358491 13.5672277,47.6623481 10.7044599,48.1942688 C10.7044599,50.0559914 10.6268882,51.8475299 10.7266233,53.6316807 C10.8448279,55.744588 10.7617751,57.8358446 8.82986861,58.8627471 L6.61722617,58.8627471 C4.68901355,57.8432324 4.55267728,55.7372002 4.68565746,53.6316807 C4.76261413,52.1230243 4.76014813,50.611364 4.67826968,49.1029667 C4.66718799,48.7261896 3.91877683,47.8888595 3.67128594,47.837145 C2.27499405,47.5453274 1.53621527,46.547976 0.826987638,45.4767468 L0.830681532,36.3565228 Z" id="Path" fill="#FFFFFF"></path>
                <path d="M24.3953549,36.5964508 C25.3890123,34.7125649 26.9699989,34.0402762 29.0496612,34.1621747 C30.7931791,34.254522 32.5440848,34.1621747 34.2912966,34.184338 C36.8511651,34.221277 38.1994364,35.576936 38.2068242,38.1035595 C38.2142119,39.8064446 38.1144768,41.5130235 38.2289875,43.2085208 C38.4062944,45.7757771 37.131901,47.6633569 34.2691333,48.1952776 C34.2691333,50.0570001 34.1915615,51.8485387 34.2912966,53.6326894 C34.4095012,55.7455967 34.3264485,58.0757726 32.3945419,59.1026751 L30.1818995,59.1026751 C28.2536869,58.0831604 28.2149812,55.7382089 28.3479614,53.6326894 C28.4249181,52.1240331 28.422452,50.6123727 28.3405736,49.1039755 C28.3294919,48.7271983 27.4834502,48.1287875 27.2359593,48.077073 C25.8396674,47.7852554 25.1008886,46.787904 24.391661,45.7166748 L24.3953549,36.5964508 Z" id="Path" fill="#FFFFFF"></path>
                <path d="M47.1609051,36.5964508 C48.1545626,34.7125649 49.7355492,34.0402762 51.8152114,34.1621747 C53.5587293,34.254522 55.309635,34.1621747 57.0568469,34.184338 C59.6167153,34.221277 60.9649866,35.576936 60.9723744,38.1035595 C60.9797622,39.8064446 60.880027,41.5130235 60.9945378,43.2085208 C61.1718447,45.7757771 59.8974513,47.6633569 57.0346835,48.1952776 C57.0346835,50.0570001 56.9571117,51.8485387 57.0568469,53.6326894 C57.1750515,55.7455967 57.0919987,58.0757726 55.1600922,59.1026751 L52.9474497,59.1026751 C51.0192371,58.0831604 51.0116959,55.7382089 51.1446761,53.6326894 C51.2216328,52.1240331 51.2191668,50.6123727 51.1372883,49.1039755 C51.1262066,48.7271983 50.2490004,48.1287875 50.0015095,48.077073 C48.6052176,47.7852554 47.8664388,46.787904 47.1572112,45.7166748 L47.1609051,36.5964508 Z" id="Path" fill="#FFFFFF"></path>
                <path d="M23.1724649,13.8491947 C23.190131,14.8860464 22.7951092,15.8874341 22.0743298,16.6329879 C21.3535503,17.3785417 20.3660785,17.8071663 19.3292218,17.8245364 C18.2920472,17.8147392 17.3013775,17.3927324 16.5757368,16.651603 C15.850096,15.9104737 15.4491032,14.9111134 15.4612102,13.8739632 C15.4600747,11.7730401 17.1262319,10.0502481 19.2260198,9.98118309 C20.2631097,9.96797078 21.2626806,10.3687326 22.0033972,11.0947279 C22.7441138,11.8207231 23.1648582,12.8120485 23.1724649,13.8491947 Z" id="Path" fill="#C0E5EA"></path>
                <path d="M46.3351257,13.8739632 C46.3534695,16.0305301 44.6236147,17.795462 42.4671141,17.8204083 C41.4302965,17.8074039 40.4415121,17.3812896 39.7200301,16.6365591 C38.9985482,15.8918285 38.603997,14.8900314 38.6238709,13.8533228 C38.632055,11.7517612 40.3084833,10.0369415 42.4093209,9.98118309 C43.4471278,9.97348673 44.4451327,10.3800854 45.1820863,11.1108396 C45.9190399,11.8415938 46.3340548,12.8361284 46.3351257,13.8739632 Z" id="Path" fill="#C0E5EA"></path>
                <path d="M30.8961039,7.7355072 C29.859723,7.74099715 28.863846,7.33342299 28.1286835,6.60290846 C27.3935209,5.87239394 26.9796387,4.87912195 26.9785553,3.84272711 C26.9990958,2.80547443 27.4323941,1.81922907 28.1824565,1.1024855 C28.932519,0.38574193 29.9374219,-0.00232688605 30.9745374,0.024252474 C33.0798586,0.0531490389 34.7847559,1.7497902 34.8219086,3.84272711 C34.810537,6.00082497 33.0542208,7.74236668 30.8961039,7.7355072 Z" id="Path" fill="#C0E5EA"></path>
                <path d="M8.03649045,29.6683084 C6.99964383,29.6848616 5.99870127,29.2887838 5.25392561,28.567234 C4.50914995,27.8456842 4.08156992,26.8577879 4.06527683,25.8209372 C4.07176809,24.7827168 4.49273012,23.7901069 5.23458811,23.0637528 C5.9764461,22.3373986 6.97772412,21.9374913 8.01585005,21.9529256 C10.1185213,21.947458 11.8438363,23.6160554 11.9086301,25.7177352 C11.9229534,26.756246 11.5221188,27.7575076 10.7951109,28.4992417 C10.068103,29.2409758 9.07507971,29.6618058 8.03649045,29.6683084 Z M8.02740343,28.8839938 C8.85097826,28.8788375 9.6384204,28.5451299 10.2149192,27.9569537 C10.7914179,27.3687775 11.1092695,26.5748025 11.0979116,25.7512899 C11.0465317,24.0847113 9.67840086,22.7615561 8.01103612,22.7658918 C7.1878287,22.7536528 6.39384074,23.0707691 5.80556625,23.6467494 C5.21729176,24.2227298 4.8834796,25.0098442 4.87833219,25.8331265 C4.8912522,26.6553227 5.23031227,27.4386992 5.8209004,28.0108699 C6.41148853,28.5830405 7.20521048,28.8971201 8.02740343,28.8839938 Z" id="Combined-Shape" fill="#30AABC"></path>
                <path d="M30.8961039,29.3418815 C29.8593417,29.3462705 28.8634777,28.9377749 28.1284358,28.2066057 C27.3933938,27.4754365 26.9796431,26.4817442 26.9785553,25.4449733 C27.0001796,24.4084435 27.4339524,23.423258 28.1838952,22.7074036 C28.9338379,21.9915491 29.9381229,21.6040431 30.9745374,21.6306268 C33.0724443,21.6590052 34.7712987,23.3432614 34.8177805,25.4408453 C34.8155946,26.4783719 34.4010577,27.4724744 33.6654808,28.2041799 C32.9299038,28.9358854 31.9336277,29.3451706 30.8961039,29.3418815 Z M30.8958466,28.5537559 C31.7179726,28.5563621 32.5074143,28.2320476 33.0902799,27.6522497 C33.6731455,27.0724518 34.0016214,26.2847325 34.0033536,25.4626042 C33.9665217,23.8004946 32.6203623,22.4659026 30.9579967,22.4434158 C30.1367497,22.4223511 29.3409619,22.729408 28.7467129,23.2966456 C28.1524639,23.8638833 27.8087456,24.6445368 27.7916107,25.4658752 C27.7924727,26.2874047 28.1203256,27.0747989 28.7027673,27.6541719 C29.2852089,28.2335448 30.0743241,28.5572337 30.8958466,28.5537559 Z" id="Combined-Shape" fill="#30AABC"></path>
                <path d="M54.0711489,29.3418815 C53.0350986,29.3506733 52.038109,28.9469537 51.3000836,28.2197702 C50.5620582,27.4925867 50.143629,26.5016806 50.137088,25.4656138 C50.153323,24.4276719 50.5830106,23.439105 51.3308529,22.7191614 C52.0786953,21.9992179 53.0828767,21.6074072 54.1206858,21.6306268 C56.226007,21.6595234 57.9350324,23.3396522 57.9804413,25.428461 C57.9826361,26.4663205 57.5716024,27.4623637 56.8381107,28.19663 C56.104619,28.9308962 55.10901,29.3429809 54.0711489,29.3418815 Z M54.0698975,28.5585911 C54.892933,28.559463 55.682462,28.2326752 56.2641291,27.6503939 C56.8457962,27.0681126 57.1717505,26.2782391 57.17001,25.455205 C57.1340003,23.7987563 55.7787241,22.4663954 54.1091809,22.4434801 C53.2861867,22.4250667 52.4898596,22.7357769 51.8968123,23.3067002 C51.303765,23.8776235 50.9630179,24.6615681 50.9501433,25.4846675 C50.9553305,26.3062801 51.2871495,27.0920797 51.8724119,27.6687443 C52.4576743,28.245409 53.2482981,28.5655631 54.0698975,28.5585911 Z" id="Combined-Shape" fill="#30AABC"></path>
            </g>
        </g>
    </g>
</svg>