<?xml version="1.0" encoding="UTF-8"?>
<svg width="24px" height="24px" viewBox="0 0 24 24" version="1.1" xmlns="http://www.w3.org/2000/svg" xmlns:xlink="http://www.w3.org/1999/xlink">
    <!-- Generator: Sketch 49.1 (51147) - http://www.bohemiancoding.com/sketch -->
    <title>icon_xinzeng copy</title>
    <desc>Created with Sketch.</desc>
    <defs></defs>
    <g id="icon_xinzeng-copy" stroke="none" stroke-width="1" fill="none" fill-rule="evenodd">
        <g id="新增" transform="translate(12.000000, 12.000000) scale(1, -1) translate(-12.000000, -12.000000) translate(2.000000, 2.000000)" fill="#0089BD" fill-rule="nonzero">
            <path d="M19.0909091,3.63636364 L16.3636364,3.63636364 L16.3636364,0.909090909 C16.3636364,0.363636364 16,0 15.4545455,0 C14.9090909,0 14.5454545,0.363636364 14.5454545,0.909090909 L14.5454545,3.63636364 L11.8181818,3.63636364 C11.2727273,3.63636364 10.9090909,4 10.9090909,4.54545455 C10.9090909,5.09090909 11.2727273,5.45454545 11.8181818,5.45454545 L14.5454545,5.45454545 L14.5454545,8.18181818 C14.5454545,8.72727273 14.9090909,9.09090909 15.4545455,9.09090909 C16,9.09090909 16.3636364,8.72727273 16.3636364,8.18181818 L16.3636364,5.45454545 L19.0909091,5.45454545 C19.6363636,5.45454545 20,5.09090909 20,4.54545455 C20,4 19.6363636,3.63636364 19.0909091,3.63636364 Z" id="Shape"></path>
            <path d="M17.2727273,19.2724609 L2.54545455,19.2724609 C1.09090909,19.2724609 0,18.9090909 0,17.4545455 L0,2.54545455 C0,1.09090909 1.09090909,0 2.54545455,0 L10.3636364,0 C10.9090909,0 11.1958008,0.10908647 11.1958008,0.654541016 C11.1958008,1.19999556 11.2827592,1.4152832 10.7373047,1.4152832 L2.54545455,1.4152832 C2.18181818,1.4152832 1.5078125,2.18181818 1.5078125,2.54545455 L1.5078125,17.4545455 C1.5078125,17.8181818 2.18181818,18 2.54545455,18 L17.2727273,18 C17.6363636,18 18,17.6363636 18,17.2727273 L18,9.63636364 C18,9.09090909 18.3636364,8.72727273 18.9090909,8.72727273 C19.4545455,8.72727273 19.2346191,9.09090909 19.2346191,9.63636364 L19.2346191,17.4545455 C19.4164373,18.9090909 18.7272727,19.2724609 17.2727273,19.2724609 Z" id="Shape"></path>
        </g>
    </g>
</svg>